<svg xmlns="http://www.w3.org/2000/svg" xmlns:xlink="http://www.w3.org/1999/xlink" width="500" zoomAndPan="magnify" viewBox="0 0 375 374.999991" height="500" preserveAspectRatio="xMidYMid meet" version="1.0"><defs><clipPath id="3001738a5e"><path d="M 8.039062 76 L 210.539062 76 L 210.539062 299 L 8.039062 299 Z M 8.039062 76 " clip-rule="nonzero"/></clipPath><clipPath id="b7203b7fdb"><path d="M 8.039062 76 L 208 76 L 208 243 L 8.039062 243 Z M 8.039062 76 " clip-rule="nonzero"/></clipPath><clipPath id="4c00f34c2c"><path d="M 107 130 L 210.539062 130 L 210.539062 244 L 107 244 Z M 107 130 " clip-rule="nonzero"/></clipPath><clipPath id="7cc82834a6"><path d="M 169.230469 76 L 367 76 L 367 299 L 169.230469 299 Z M 169.230469 76 " clip-rule="nonzero"/></clipPath></defs><g clip-path="url(#3001738a5e)"><path fill="#283593" d="M 103.476562 77.660156 C 107.078125 75.640625 111.511719 75.640625 115.105469 77.660156 C 132.894531 87.644531 186.429688 117.699219 204.226562 127.683594 C 207.828125 129.699219 210.042969 133.433594 210.042969 137.472656 C 210.042969 157.445312 210.042969 217.546875 210.042969 237.519531 C 210.042969 241.558594 207.828125 245.292969 204.226562 247.3125 C 186.4375 257.296875 132.902344 287.351562 115.105469 297.335938 C 111.503906 299.355469 107.070312 299.355469 103.476562 297.335938 C 85.6875 287.351562 32.152344 257.296875 14.355469 247.3125 C 10.761719 245.292969 8.542969 241.5625 8.542969 237.523438 C 8.542969 217.554688 8.542969 157.449219 8.542969 137.480469 C 8.542969 133.4375 10.761719 129.707031 14.363281 127.683594 C 32.144531 117.699219 85.691406 87.644531 103.476562 77.660156 Z M 103.476562 77.660156 " fill-opacity="1" fill-rule="evenodd"/></g><g clip-path="url(#b7203b7fdb)"><path fill="#5c6bc0" d="M 10.15625 242.667969 C 8.746094 240.777344 8.542969 238.988281 8.542969 236.574219 C 8.542969 216.722656 8.542969 156.960938 8.542969 137.101562 C 8.542969 133.082031 10.753906 129.371094 14.34375 127.367188 C 32.070312 117.441406 85.425781 87.5625 103.152344 77.628906 C 106.742188 75.617188 111.605469 75.660156 115.195312 77.671875 C 132.921875 87.597656 186.097656 117.222656 203.824219 127.148438 C 205.253906 127.957031 206.347656 128.925781 207.324219 130.203125 Z M 10.15625 242.667969 " fill-opacity="1" fill-rule="evenodd"/></g><path fill="#ffffff" d="M 109.292969 113.261719 C 150.265625 113.261719 183.53125 146.527344 183.53125 187.5 C 183.53125 228.472656 150.265625 261.734375 109.292969 261.734375 C 68.320312 261.734375 35.058594 228.472656 35.058594 187.5 C 35.058594 146.527344 68.320312 113.261719 109.292969 113.261719 Z M 109.292969 150.378906 C 129.777344 150.378906 146.410156 167.007812 146.410156 187.5 C 146.410156 207.984375 129.777344 224.617188 109.292969 224.617188 C 88.808594 224.617188 72.175781 207.984375 72.175781 187.5 C 72.175781 167.007812 88.804688 150.378906 109.292969 150.378906 Z M 109.292969 150.378906 " fill-opacity="1" fill-rule="evenodd"/><g clip-path="url(#4c00f34c2c)"><path fill="#283593" d="M 207.3125 130.257812 C 210.046875 132.816406 209.996094 136.679688 209.996094 139.71875 C 209.996094 159.839844 209.824219 217.078125 210.042969 237.199219 C 210.0625 239.300781 209.371094 241.511719 208.332031 243.175781 L 107.136719 187.5 Z M 207.3125 130.257812 " fill-opacity="1" fill-rule="evenodd"/></g><g clip-path="url(#7cc82834a6)"><path fill="#5c6bc0" d="M 366.648438 141.886719 C 366.648438 138.164062 365.847656 134.871094 364.234375 132.046875 C 362.652344 129.265625 360.285156 126.9375 357.109375 125.097656 C 330.859375 109.964844 304.59375 94.875 278.351562 79.726562 C 271.28125 75.644531 264.421875 75.792969 257.402344 79.9375 C 246.957031 86.097656 194.652344 116.0625 179.0625 125.089844 C 172.648438 128.804688 169.527344 134.492188 169.523438 141.882812 C 169.515625 172.316406 169.523438 202.75 169.515625 233.1875 C 169.515625 236.828125 170.277344 240.050781 171.820312 242.835938 C 173.402344 245.699219 175.808594 248.097656 179.058594 249.980469 C 194.644531 259.003906 246.949219 288.964844 257.398438 295.125 C 264.425781 299.277344 271.28125 299.421875 278.355469 295.335938 C 304.597656 280.183594 330.871094 265.097656 357.117188 249.972656 C 360.375 248.089844 362.773438 245.691406 364.363281 242.828125 C 365.898438 240.050781 366.660156 236.820312 366.660156 233.171875 C 366.660156 233.171875 366.660156 172.328125 366.652344 141.890625 " fill-opacity="1" fill-rule="nonzero"/></g><path fill="#283593" d="M 268.386719 187.234375 L 171.820312 242.835938 C 173.402344 245.695312 175.808594 248.097656 179.058594 249.976562 C 194.644531 259.003906 246.949219 288.960938 257.398438 295.125 C 264.425781 299.273438 271.28125 299.421875 278.355469 295.332031 C 304.597656 280.183594 330.871094 265.097656 357.117188 249.96875 C 360.375 248.089844 362.773438 245.6875 364.363281 242.828125 L 268.390625 187.234375 " fill-opacity="1" fill-rule="nonzero"/><path fill="#283593" d="M 239.785156 203.703125 C 245.40625 213.515625 255.96875 220.132812 268.085938 220.132812 C 280.28125 220.132812 290.902344 213.429688 296.496094 203.519531 L 268.386719 187.234375 L 239.785156 203.703125 " fill-opacity="1" fill-rule="nonzero"/><path fill="#3949ab" d="M 366.648438 141.886719 C 366.648438 138.164062 365.847656 134.871094 364.234375 132.046875 L 268.386719 187.234375 L 364.359375 242.828125 C 365.894531 240.050781 366.65625 236.820312 366.65625 233.171875 C 366.65625 233.171875 366.65625 172.324219 366.648438 141.886719 " fill-opacity="1" fill-rule="nonzero"/><path fill="#ffffff" d="M 361.375 191.207031 L 353.875 191.207031 L 353.875 198.707031 L 346.371094 198.707031 L 346.371094 191.207031 L 338.875 191.207031 L 338.875 183.710938 L 346.371094 183.710938 L 346.371094 176.214844 L 353.875 176.214844 L 353.875 183.710938 L 361.375 183.710938 L 361.375 191.207031 " fill-opacity="1" fill-rule="nonzero"/><path fill="#ffffff" d="M 334.007812 191.207031 L 326.507812 191.207031 L 326.507812 198.707031 L 319.011719 198.707031 L 319.011719 191.207031 L 311.511719 191.207031 L 311.511719 183.710938 L 319.011719 183.710938 L 319.011719 176.214844 L 326.507812 176.214844 L 326.507812 183.710938 L 334.007812 183.710938 L 334.007812 191.207031 " fill-opacity="1" fill-rule="nonzero"/><path fill="#ffffff" d="M 296.496094 203.519531 C 290.902344 213.429688 280.28125 220.132812 268.085938 220.132812 C 255.96875 220.132812 245.40625 213.515625 239.785156 203.703125 C 237.054688 198.9375 235.488281 193.421875 235.488281 187.53125 C 235.488281 169.527344 250.082031 154.933594 268.085938 154.933594 C 280.125 154.933594 290.632812 161.464844 296.277344 171.175781 L 324.773438 154.769531 C 313.449219 135.21875 292.304688 122.0625 268.085938 122.0625 C 231.929688 122.0625 202.617188 151.375 202.617188 187.53125 C 202.617188 199.394531 205.773438 210.515625 211.289062 220.113281 C 222.585938 239.765625 243.792969 253 268.085938 253 C 292.429688 253 313.664062 239.710938 324.941406 220.003906 L 296.496094 203.519531 " fill-opacity="1" fill-rule="nonzero"/></svg>