<svg xmlns="http://www.w3.org/2000/svg" xmlns:xlink="http://www.w3.org/1999/xlink" width="500" zoomAndPan="magnify" viewBox="0 0 375 374.999991" height="500" preserveAspectRatio="xMidYMid meet" version="1.0"><defs><clipPath id="d008e77d53"><path d="M 55 105.703125 L 114 105.703125 L 114 201 L 55 201 Z M 55 105.703125 " clip-rule="nonzero"/></clipPath></defs><path fill="#4e7896" d="M 55.878906 231.011719 C 55.878906 231.011719 49.644531 234.800781 60.21875 235.886719 C 72.917969 237.507812 79.726562 237.238281 93.820312 234.53125 C 93.820312 234.53125 97.613281 236.964844 102.761719 238.867188 C 71.054688 252.398438 30.953125 238.054688 55.882812 231.019531 Z M 51.8125 213.421875 C 51.8125 213.421875 45.039062 218.566406 55.605469 219.648438 C 69.425781 221 80.304688 221.269531 98.964844 217.484375 C 98.964844 217.484375 101.402344 220.191406 105.46875 221.542969 C 67.257812 232.910156 24.441406 222.625 51.8125 213.425781 Z M 126.609375 244.277344 C 126.609375 244.277344 131.214844 248.0625 121.457031 251.042969 C 103.300781 256.453125 45.3125 258.078125 29.050781 251.042969 C 23.359375 248.609375 34.203125 245.050781 37.722656 244.546875 C 41.25 243.738281 43.140625 243.738281 43.140625 243.738281 C 36.910156 239.402344 1.679688 252.667969 25.253906 256.421875 C 90.019531 266.976562 143.402344 251.820312 126.601562 244.242188 Z M 58.855469 195.019531 C 58.855469 195.019531 29.320312 202.054688 48.285156 204.488281 C 56.414062 205.570312 72.402344 205.300781 87.304688 204.21875 C 99.5 203.136719 111.695312 200.96875 111.695312 200.96875 C 111.695312 200.96875 107.355469 202.863281 104.378906 204.757812 C 74.296875 212.605469 16.578125 209.089844 33.109375 200.96875 C 47.203125 194.203125 58.855469 194.980469 58.855469 194.980469 Z M 111.699219 224.519531 C 142.046875 208.820312 127.957031 193.664062 118.203125 195.558594 C 115.765625 196.101562 114.671875 196.640625 114.671875 196.640625 C 114.671875 196.640625 115.484375 195.019531 117.382812 194.480469 C 136.621094 187.714844 151.800781 214.773438 111.148438 225.332031 C 111.148438 225.332031 111.421875 225.0625 111.691406 224.523438 Z M 61.839844 267.277344 C 91.105469 269.175781 135.824219 266.195312 136.902344 252.394531 C 136.902344 252.394531 134.738281 257.808594 112.785156 261.867188 C 87.855469 266.46875 56.964844 265.925781 38.800781 262.949219 C 38.800781 262.949219 42.59375 266.195312 61.839844 267.28125 Z M 61.839844 267.277344 " fill-opacity="1" fill-rule="nonzero"/><g clip-path="url(#d008e77d53)"><path fill="#f58219" d="M 93.273438 105.703125 C 93.273438 105.703125 110.074219 122.757812 77.28125 148.464844 C 51 169.304688 71.285156 181.214844 77.28125 194.746094 C 61.835938 180.945312 50.726562 168.765625 58.3125 157.394531 C 69.425781 140.617188 100.042969 132.496094 93.269531 105.703125 Z M 84.601562 183.378906 C 92.457031 192.3125 82.429688 200.433594 82.429688 200.433594 C 82.429688 200.433594 102.484375 190.144531 93.269531 177.425781 C 84.871094 165.246094 78.367188 159.289062 113.589844 138.992188 C 113.589844 138.992188 58.039062 152.792969 84.597656 183.375 Z M 84.601562 183.378906 " fill-opacity="1" fill-rule="nonzero"/></g><path fill="#4e7896" d="M 258.257812 215.507812 L 258.257812 174.363281 C 258.257812 163.859375 252.371094 156.730469 237.660156 156.730469 C 229.25 156.730469 222.101562 158.828125 215.800781 161.34375 L 217.902344 168.902344 C 222.523438 167.222656 228.414062 165.546875 234.714844 165.546875 C 242.703125 165.546875 246.488281 168.902344 246.488281 175.625 L 246.488281 181.085938 L 242.316406 181.085938 C 222.136719 181.085938 212.890625 188.644531 212.890625 200.816406 C 212.890625 210.894531 219.195312 216.773438 230.546875 216.773438 C 237.695312 216.773438 243.160156 213.414062 248.199219 209.214844 L 249.039062 215.511719 L 258.285156 215.511719 Z M 246.480469 202.074219 C 242.28125 205.851562 237.652344 207.953125 233.445312 207.953125 C 227.976562 207.953125 224.621094 204.59375 224.621094 198.722656 C 224.621094 192.847656 227.980469 188.644531 241.433594 188.644531 L 246.480469 188.644531 L 246.480469 202.078125 Z M 297.765625 215.511719 L 283.050781 215.511719 L 265.402344 157.996094 L 278.011719 157.996094 L 288.945312 193.265625 L 291.464844 203.765625 C 296.933594 188.652344 301.132812 173.117188 302.816406 158.003906 L 315.425781 158.003906 C 312.0625 176.898438 306.183594 197.46875 297.769531 215.523438 Z M 365.863281 215.511719 L 365.863281 174.363281 C 365.863281 163.859375 359.976562 156.730469 345.257812 156.730469 C 336.851562 156.730469 329.707031 158.828125 323.398438 161.34375 L 325.082031 168.902344 C 330.125 167.222656 336.011719 165.546875 342.316406 165.546875 C 350.304688 165.546875 354.085938 168.902344 354.085938 175.625 L 354.085938 181.085938 L 349.886719 181.085938 C 329.707031 181.085938 320.464844 188.644531 320.464844 200.816406 C 320.464844 210.894531 326.347656 216.773438 337.699219 216.773438 C 345.265625 216.773438 350.730469 213.414062 355.773438 209.214844 L 356.613281 215.511719 Z M 354.09375 202.074219 C 349.894531 205.851562 345.265625 207.953125 341.058594 207.953125 C 335.59375 207.953125 332.234375 204.59375 332.234375 198.722656 C 332.234375 192.847656 335.59375 188.644531 349.046875 188.644531 L 354.09375 188.644531 L 354.09375 202.078125 Z M 199.816406 225.167969 C 196.453125 230.207031 191.410156 233.984375 185.105469 236.082031 L 179.636719 229.367188 C 183.839844 226.847656 188.042969 223.070312 189.726562 219.710938 C 191.410156 216.773438 191.828125 212.574219 191.828125 202.917969 L 191.828125 137.414062 L 204.441406 137.414062 L 204.441406 202.074219 C 204.441406 215.09375 203.179688 220.128906 199.820312 225.167969 Z M 199.816406 225.167969 " fill-opacity="1" fill-rule="nonzero"/></svg>