<svg xmlns="http://www.w3.org/2000/svg" xmlns:xlink="http://www.w3.org/1999/xlink" width="1080" zoomAndPan="magnify" viewBox="0 0 810 262.499992" height="350" preserveAspectRatio="xMidYMid meet" version="1.0"><defs><g/><clipPath id="85fd86dcb6"><path d="M 0.769531 9.46875 L 186 9.46875 L 186 252.753906 L 0.769531 252.753906 Z M 0.769531 9.46875 " clip-rule="nonzero"/></clipPath></defs><g clip-path="url(#85fd86dcb6)"><path fill="#ff6600" d="M 183.585938 126.394531 C 183.4375 125.875 183.285156 125.355469 183.125 124.839844 C 183.023438 124.523438 182.917969 124.203125 182.8125 123.886719 C 182.753906 123.703125 182.695312 123.515625 182.632812 123.332031 C 182.484375 122.898438 182.332031 122.464844 182.171875 122.035156 C 182.152344 121.976562 182.132812 121.921875 182.113281 121.863281 C 179.59375 115 175.921875 108.71875 171.152344 103.140625 L 170.96875 102.921875 L 170.921875 102.898438 C 165.027344 96.09375 157.734375 90.695312 149.628906 87.023438 C 139.734375 81.175781 126.445312 73.792969 115.703125 67.824219 C 107.113281 63.054688 99.691406 58.929688 97.171875 57.347656 L 96.609375 58.246094 L 97.171875 57.347656 C 84.566406 49.535156 71.996094 41.644531 59.441406 33.734375 L 40.648438 21.8125 C 37.527344 19.808594 34.402344 17.808594 31.296875 15.78125 C 29.738281 14.773438 28.195312 13.746094 26.648438 12.71875 C 25.875 12.210938 25.117188 11.679688 24.351562 11.15625 C 23.972656 10.886719 23.582031 10.636719 23.210938 10.355469 L 22.109375 9.507812 L 23.195312 10.378906 C 23.558594 10.667969 23.945312 10.925781 24.316406 11.199219 C 25.074219 11.742188 25.820312 12.289062 26.585938 12.8125 C 28.113281 13.867188 29.636719 14.929688 31.171875 15.964844 C 34.238281 18.058594 37.320312 20.121094 40.40625 22.183594 L 58.957031 34.488281 C 61.769531 36.335938 64.582031 38.179688 67.394531 40.027344 C 64.601562 40.390625 58.886719 40.886719 55.355469 39.523438 L 31.335938 23.691406 L 30.851562 24.429688 L 31.324219 23.683594 C 27.703125 21.539062 24.09375 19.347656 20.523438 17.109375 C 18.742188 15.988281 16.964844 14.851562 15.214844 13.679688 C 14.339844 13.089844 13.472656 12.496094 12.621094 11.875 C 12.195312 11.5625 11.777344 11.246094 11.371094 10.914062 C 10.976562 10.570312 10.546875 10.246094 10.277344 9.789062 C 10.515625 10.265625 10.925781 10.625 11.296875 10.996094 C 11.683594 11.359375 12.078125 11.707031 12.484375 12.050781 C 13.292969 12.730469 14.117188 13.390625 14.953125 14.039062 C 16.621094 15.339844 18.316406 16.601562 20.023438 17.847656 C 22.285156 19.5 24.5625 21.121094 26.851562 22.730469 L 5.769531 18.523438 L 30.46875 25.261719 L 54.023438 40.785156 L 53.980469 40.875 C 54.144531 40.957031 54.324219 41.027344 54.5 41.097656 L 55.117188 41.507812 L 67.296875 50.824219 C 60.4375 48.910156 50.851562 46.753906 49.382812 46.421875 C 46.703125 44.625 27.417969 35.347656 22.726562 33.566406 L 22.535156 33.28125 C 22.359375 33.039062 22.171875 32.855469 21.992188 32.644531 C 21.636719 32.21875 21.257812 31.851562 20.882812 31.472656 C 20.128906 30.722656 19.363281 30.003906 18.582031 29.304688 C 17.027344 27.898438 15.4375 26.546875 13.832031 25.210938 C 10.628906 22.542969 7.371094 19.945312 4.082031 17.394531 C 7.179688 20.175781 10.242188 22.996094 13.238281 25.878906 C 14.734375 27.320312 16.21875 28.773438 17.648438 30.265625 C 18.371094 31.007812 19.070312 31.765625 19.738281 32.535156 C 19.875 32.695312 20.015625 32.859375 20.152344 33.019531 C 19.941406 32.980469 19.730469 32.945312 19.519531 32.910156 L 17.175781 32.488281 L 12.480469 31.605469 L 3.09375 29.789062 L 12.273438 32.476562 L 16.871094 33.792969 L 19.179688 34.4375 C 19.96875 34.644531 20.695312 34.859375 21.558594 35.039062 C 23.253906 35.324219 46.839844 46.628906 48.382812 47.886719 C 48.992188 48.496094 54.195312 55.925781 58.035156 61.476562 L 30.855469 55.773438 L 2.882812 42.046875 L 29.058594 56.800781 L 15.828125 69.054688 L 1.828125 69.511719 L 15.859375 70.800781 L 35.371094 85.484375 L 20.179688 102.296875 L 20.238281 102.351562 L 1.402344 105.011719 L 20.816406 104.027344 L 36.011719 125.90625 L 19.691406 147.53125 L 0.769531 151.917969 L 19.742188 149.292969 L 35.238281 175.390625 L 18.820312 205.5625 L 3.304688 206.21875 L 18.777344 207.285156 L 31.601562 234.765625 C 29.878906 237.480469 28.164062 240.199219 26.472656 242.9375 L 23.628906 247.589844 C 22.691406 249.148438 21.757812 250.710938 20.84375 252.28125 C 21.933594 250.824219 23.011719 249.359375 24.078125 247.886719 L 27.253906 243.457031 C 29.308594 240.5625 31.335938 237.652344 33.351562 234.734375 L 39.976562 232.523438 C 42.257812 231.765625 44.527344 230.964844 46.804688 230.1875 C 49.082031 229.410156 51.351562 228.613281 53.617188 227.808594 C 55.578125 227.109375 57.546875 226.421875 59.503906 225.714844 L 60.585938 231.695312 C 61.027344 234.011719 61.449219 236.328125 61.910156 238.640625 C 62.8125 243.269531 63.753906 247.890625 64.792969 252.492188 C 64.28125 247.800781 63.671875 243.125 63.027344 238.457031 C 62.710938 236.117188 62.355469 233.789062 62.023438 231.457031 L 61.027344 224.914062 L 80.511719 199.417969 C 81.925781 199.121094 87.417969 197.941406 93.195312 196.507812 C 97.441406 198.976562 101.976562 200.9375 106.683594 202.339844 L 107.207031 220.988281 C 105.757812 223.363281 104.355469 225.75 102.972656 228.15625 C 101.542969 230.644531 100.136719 233.148438 98.78125 235.679688 C 97.425781 238.207031 96.09375 240.75 94.851562 243.339844 C 93.609375 245.925781 92.414062 248.539062 91.414062 251.226562 C 92.550781 248.59375 93.875 246.054688 95.246094 243.542969 C 96.617188 241.03125 98.074219 238.570312 99.558594 236.121094 C 101.039062 233.675781 102.566406 231.257812 104.117188 228.851562 C 105.59375 226.566406 107.097656 224.289062 108.628906 222.046875 L 128.753906 219.089844 C 128.746094 221.476562 128.691406 223.882812 128.582031 226.277344 C 128.453125 229.023438 128.265625 231.769531 127.984375 234.507812 C 127.695312 237.242188 127.324219 239.972656 126.753906 242.664062 C 126.472656 244.011719 126.132812 245.347656 125.695312 246.648438 C 125.253906 247.949219 124.726562 249.234375 123.953125 250.378906 C 124.789062 249.277344 125.390625 248.011719 125.90625 246.726562 C 126.417969 245.4375 126.828125 244.109375 127.1875 242.769531 C 127.910156 240.089844 128.429688 237.363281 128.867188 234.625 C 129.300781 231.886719 129.640625 229.132812 129.917969 226.375 C 130.183594 223.707031 130.394531 221.042969 130.535156 218.351562 L 141.226562 202.503906 C 147.128906 200.8125 152.582031 198.308594 157.503906 195.152344 L 157.535156 195.148438 L 157.8125 194.96875 C 159.097656 194.136719 160.34375 193.25 161.5625 192.324219 L 162.484375 192.324219 L 162.25 192.796875 C 161.625 194.039062 161.054688 195.296875 160.457031 196.542969 C 159.285156 199.046875 158.128906 201.554688 156.992188 204.070312 C 154.714844 209.101562 152.46875 214.144531 150.257812 219.203125 C 148.042969 224.257812 145.84375 229.320312 143.683594 234.402344 C 142.605469 236.941406 141.527344 239.480469 140.476562 242.03125 C 139.945312 243.304688 139.425781 244.585938 138.914062 245.863281 C 138.648438 246.503906 138.40625 247.148438 138.160156 247.792969 C 138.039062 248.117188 137.90625 248.433594 137.792969 248.761719 L 137.476562 249.746094 L 137.820312 248.769531 C 137.941406 248.449219 138.082031 248.132812 138.210938 247.8125 C 138.476562 247.175781 138.734375 246.539062 139.015625 245.90625 C 139.5625 244.640625 140.113281 243.378906 140.679688 242.121094 C 141.800781 239.597656 142.945312 237.089844 144.09375 234.582031 C 146.386719 229.5625 148.722656 224.5625 151.070312 219.570312 C 153.417969 214.578125 155.796875 209.601562 158.203125 204.640625 C 159.40625 202.160156 160.628906 199.6875 161.859375 197.226562 C 162.488281 196.003906 163.09375 194.765625 163.742188 193.558594 L 164.703125 191.742188 L 165.710938 189.992188 L 164.964844 189.539062 L 165.710938 189.992188 C 166.214844 189.152344 166.890625 188.144531 167.671875 187 C 171.402344 183.296875 174.667969 179.113281 177.34375 174.578125 L 177.5 174.316406 L 177.511719 174.230469 C 185.644531 160.261719 188.328125 143.140625 183.585938 126.394531 Z M 140.234375 199.695312 C 133.117188 201.710938 125.933594 202.3125 118.976562 201.679688 C 120.171875 201.054688 121.03125 200.484375 121.539062 200.117188 C 122.234375 200.191406 123.441406 200.285156 125.078125 200.285156 C 129.097656 200.285156 135.617188 199.695312 142.949219 196.757812 L 141.152344 199.421875 C 140.84375 199.515625 140.542969 199.605469 140.234375 199.695312 Z M 86.636719 74.417969 C 90.054688 74.457031 111.082031 78.882812 114.199219 80.066406 C 114.792969 80.292969 116.167969 80.945312 117.964844 81.832031 C 117.433594 81.886719 116.902344 81.949219 116.367188 82.019531 C 109.652344 82.886719 103.078125 84.867188 97.003906 87.851562 C 94.113281 89.269531 91.332031 90.921875 88.703125 92.777344 C 88.042969 93.242188 81.371094 98.792969 81.40625 98.820312 C 81.40625 98.820312 68.941406 86.941406 68.941406 86.941406 Z M 121.523438 197.117188 C 116.914062 195.121094 112.992188 192.121094 110.160156 189.535156 C 115 184.589844 126.054688 173.316406 127.503906 172.027344 C 128.390625 171.285156 135.933594 169.484375 144.582031 167.722656 L 150.984375 173.160156 C 149.777344 182.1875 148 187.8125 147.207031 190.011719 C 146.273438 191.328125 145.566406 192.136719 145.269531 192.460938 C 133.554688 198.28125 123.007812 197.296875 121.523438 197.117188 Z M 150.867188 183.84375 C 151.460938 181.34375 152.078125 178.242188 152.601562 174.535156 L 154.148438 175.851562 C 153.113281 178.964844 151.976562 181.625 150.867188 183.84375 Z M 173.175781 162.835938 C 165.835938 170.054688 158.488281 172.933594 156.210938 173.695312 L 153.050781 171.011719 C 153.242188 169.347656 153.410156 167.585938 153.546875 165.71875 C 156.023438 163.976562 170.285156 153.789062 174.5 147.351562 C 174.925781 147.378906 175.550781 147.402344 176.289062 147.40625 C 175.976562 151.710938 175.144531 157.15625 173.175781 162.835938 Z M 105.839844 185.085938 L 113.734375 167.648438 C 116.5625 167.527344 120.167969 167.019531 123.800781 166.382812 L 125.84375 171.132812 C 123.238281 173.636719 113.355469 183.710938 108.859375 188.308594 C 107.453125 186.9375 106.421875 185.777344 105.839844 185.085938 Z M 85.945312 146.585938 L 82.039062 141.308594 C 86.683594 142.132812 94.394531 143.480469 98.777344 144.121094 C 99.15625 144.929688 99.53125 145.71875 99.90625 146.488281 Z M 79.609375 137.847656 C 76.589844 127.1875 77.347656 119.417969 77.5 118.160156 C 77.957031 117.195312 80.714844 111.824219 88.628906 104.875 C 97.121094 104.96875 108 105.207031 113.710938 105.589844 L 116.644531 122.417969 C 107.9375 130.328125 101.066406 138.742188 99.144531 141.164062 C 93.613281 140.355469 82.792969 138.421875 79.609375 137.847656 Z M 117.484375 106.046875 C 119.152344 106.742188 129.890625 117.828125 136.667969 125.074219 L 133.832031 128.023438 C 127.851562 125.242188 121.714844 122.75 119.578125 121.894531 L 116.785156 105.886719 C 117.109375 105.9375 117.351562 105.992188 117.484375 106.046875 Z M 142.554688 132.457031 C 140.542969 131.289062 138.09375 130.042969 135.539062 128.824219 L 138.394531 125.859375 C 142.570312 124.46875 152.515625 123.871094 159.257812 123.617188 C 154.324219 127.007812 145.144531 131.277344 142.554688 132.457031 Z M 156.652344 102.617188 C 157.5 104.765625 161.476562 115.265625 160.925781 121.769531 C 154.351562 121.972656 143.171875 122.539062 138.164062 124.058594 C 134.917969 120.585938 123.707031 108.675781 119.449219 105.265625 C 124.753906 101.960938 134.054688 96.109375 137.84375 93.351562 C 142.269531 94.777344 149.730469 97.667969 156.652344 102.617188 Z M 135.703125 92.699219 C 131.683594 95.453125 123.421875 100.691406 117.683594 104.257812 C 117.371094 104.191406 116.964844 104.125 116.46875 104.066406 L 116.003906 101.410156 C 117.5625 99.980469 122.980469 95.640625 134.257812 92.308594 C 134.566406 92.386719 135.058594 92.515625 135.703125 92.699219 Z M 94.261719 100.363281 C 95.535156 100.023438 102.601562 98.460938 113.089844 102.015625 L 113.398438 103.796875 C 107.304688 103.386719 97.023438 103.195312 90.707031 103.117188 C 91.804688 102.214844 92.988281 101.296875 94.261719 100.363281 Z M 127.359375 170.132812 L 125.605469 166.054688 C 131.53125 164.949219 137.164062 163.605469 139.160156 163.113281 L 142.851562 166.25 C 136.890625 167.480469 130.0625 169.023438 127.359375 170.132812 Z M 141.167969 160.910156 C 143.667969 147.65625 143.941406 138.097656 143.957031 135.089844 C 147.105469 133.65625 157.625 128.742188 162.355469 125.039062 C 163.550781 125.832031 165.832031 127.433594 168.355469 129.652344 C 170.910156 136.445312 172.707031 144.511719 173.082031 146.261719 C 169.105469 152.503906 153.988281 163.226562 152.335938 164.386719 C 151.214844 164.597656 149.113281 164.992188 146.566406 165.5 Z M 151.710938 166.320312 C 151.621094 167.460938 151.515625 168.550781 151.40625 169.613281 L 148.304688 166.976562 C 149.4375 166.753906 150.578125 166.535156 151.710938 166.320312 Z M 174.765625 145.578125 C 174.351562 143.660156 173.066406 138.007812 171.199219 132.34375 C 173.035156 134.21875 174.835938 136.363281 176.292969 138.714844 C 176.371094 139.566406 176.550781 142.082031 176.394531 145.613281 C 175.785156 145.613281 175.230469 145.601562 174.765625 145.578125 Z M 179.277344 138.644531 C 179.871094 137.800781 181.035156 135.941406 182.074219 133.140625 C 182.742188 136.949219 183.019531 140.753906 182.933594 144.511719 C 182.035156 145.003906 180.746094 145.289062 179.398438 145.445312 C 179.527344 142.140625 179.375 139.71875 179.277344 138.644531 Z M 158.351562 100.171875 C 155.71875 98.289062 153.027344 96.695312 150.445312 95.359375 C 154.269531 96.261719 158.253906 97.128906 161.140625 97.574219 C 162.339844 98.542969 163.507812 99.5625 164.632812 100.625 C 162.933594 100.332031 160.960938 100.207031 158.351562 100.171875 Z M 140.28125 90.972656 C 141.042969 90.050781 142.167969 88.777344 143.171875 87.660156 C 148.429688 89.460938 153.40625 92 157.953125 95.1875 C 151.777344 93.949219 143.453125 91.804688 140.28125 90.972656 Z M 92.265625 98.136719 C 89.964844 99.839844 87.945312 101.492188 86.179688 103.066406 C 86.0625 103.066406 85.957031 103.066406 85.859375 103.0625 L 83.566406 100.878906 C 86.859375 97.703125 90.542969 94.890625 94.578125 92.527344 C 93.613281 94.144531 92.753906 96.042969 92.265625 98.136719 Z M 72.601562 158.492188 C 72.945312 151.390625 77.582031 143.328125 79.152344 140.792969 C 79.253906 140.808594 79.363281 140.828125 79.476562 140.847656 L 84.40625 147.507812 L 74.214844 162.667969 C 73.675781 161.367188 73.136719 159.976562 72.601562 158.492188 Z M 85.976562 148.371094 L 100.78125 148.269531 C 105.488281 157.734375 109.683594 164.257812 111.0625 166.332031 L 103.128906 183.851562 C 93.375 184 85.578125 180.175781 84.464844 179.605469 C 83.773438 178.960938 79.550781 174.789062 75.054688 164.625 Z M 177.316406 167.410156 C 176.953125 165.605469 176.421875 164.273438 176.078125 163.542969 C 178.148438 157.488281 178.996094 151.753906 179.300781 147.261719 C 180.523438 147.132812 181.773438 146.898438 182.851562 146.496094 C 182.671875 149.664062 182.234375 152.785156 181.554688 155.839844 C 180.453125 159.980469 178.964844 163.851562 177.316406 167.410156 Z M 138.484375 90.34375 C 137.691406 89.929688 136.273438 89.191406 134.511719 88.273438 C 133.855469 87.320312 132.871094 86.128906 131.445312 84.941406 C 134.804688 85.363281 138.101562 86.082031 141.308594 87.0625 C 140.28125 88.214844 139.15625 89.5 138.484375 90.34375 Z M 84.285156 104.03125 L 73.816406 116.851562 C 72.867188 117.179688 72.011719 117.550781 71.261719 117.960938 C 74.039062 112.136719 77.761719 106.78125 82.296875 102.136719 Z M 69.886719 159.734375 C 70.664062 161.875 71.453125 163.832031 72.234375 165.617188 L 70.855469 167.671875 C 69.621094 164.972656 68.578125 162.148438 67.742188 159.207031 C 67.554688 158.539062 67.382812 157.871094 67.21875 157.199219 C 68.371094 158.59375 69.300781 159.347656 69.886719 159.734375 Z M 73.097656 167.535156 C 77.144531 176.183594 80.871094 180.265625 82.171875 181.535156 C 82.273438 182.644531 82.46875 183.710938 82.71875 184.703125 C 78.339844 180.335938 74.613281 175.242188 71.753906 169.535156 Z M 58.800781 42.074219 C 59.769531 42.167969 60.761719 42.210938 61.726562 42.210938 C 65.613281 42.210938 69.113281 41.585938 69.355469 41.542969 L 69.308594 41.285156 C 78.265625 47.164062 87.226562 53.03125 96.222656 58.859375 C 98.78125 60.46875 105.867188 64.40625 114.835938 69.386719 C 122.726562 73.773438 132 78.925781 140.277344 83.660156 C 138.128906 82.429688 134.355469 82.3125 131.933594 82.003906 C 128.839844 81.613281 125.652344 81.449219 122.539062 81.535156 C 122.175781 81.546875 121.8125 81.558594 121.449219 81.578125 C 118.722656 80.207031 116.441406 79.085938 115.289062 78.585938 L 115.339844 78.523438 C 109.753906 74.289062 101.226562 67.78125 100.640625 67.191406 C 99.527344 66.082031 73.898438 53.066406 73.644531 52.9375 C 73.292969 52.761719 72.8125 52.566406 72.238281 52.359375 Z M 51.21875 48.671875 C 56.683594 49.925781 69.835938 53.03125 72.84375 54.535156 C 77.628906 56.929688 98.222656 67.523438 99.375 68.453125 C 99.988281 69.066406 106.476562 74.03125 110.722656 77.261719 C 103.441406 75.472656 89.550781 72.621094 86.515625 72.632812 L 61.042969 62.105469 L 60.574219 62.007812 C 59.347656 60.230469 53.988281 52.472656 51.21875 48.671875 Z M 30.5625 56.625 Z M 17.585938 69.867188 L 30.832031 57.59375 L 60.511719 63.820312 L 84.507812 73.734375 L 67.273438 85.933594 L 37.007812 84.480469 Z M 22.136719 102.796875 L 37.070312 86.273438 L 67.164062 87.714844 L 80.140625 100.082031 C 73.652344 106.738281 68.746094 114.785156 65.78125 123.5625 C 65.746094 123.632812 65.714844 123.707031 65.6875 123.769531 L 65.640625 123.886719 L 37.566406 125.015625 Z M 20.210938 148.328125 Z M 21.285156 148.386719 L 37.570312 126.804688 L 65.074219 125.699219 C 63.097656 132.34375 62.273438 139.167969 62.605469 146.058594 C 62.609375 146.128906 62.609375 146.199219 62.613281 146.269531 C 62.632812 146.617188 62.652344 146.960938 62.675781 147.308594 C 62.691406 147.542969 62.710938 147.777344 62.726562 148.011719 C 62.746094 148.246094 62.765625 148.480469 62.789062 148.714844 C 62.820312 149.054688 62.851562 149.394531 62.886719 149.734375 C 62.898438 149.816406 62.902344 149.898438 62.914062 149.976562 L 62.941406 150.234375 L 62.945312 150.242188 C 63.320312 153.496094 63.957031 156.765625 64.878906 160.019531 C 65.921875 163.707031 67.292969 167.214844 68.933594 170.53125 L 67.261719 173.019531 L 36.625 174.226562 Z M 19.363281 206.433594 Z M 59.53125 223.9375 C 57.359375 224.65625 55.203125 225.414062 53.039062 226.152344 C 50.765625 226.929688 48.492188 227.71875 46.226562 228.527344 C 43.960938 229.335938 41.6875 230.121094 39.425781 230.945312 L 32.898438 233.324219 L 20.363281 206.464844 L 36.941406 176.003906 L 67.207031 174.808594 L 78.957031 198.511719 Z M 80.496094 197.597656 L 68.78125 173.960938 L 69.863281 172.351562 C 73.785156 179.671875 79.082031 185.984375 85.328125 191.050781 L 85.367188 191.117188 L 85.582031 191.292969 C 87.332031 192.695312 89.15625 193.992188 91.042969 195.195312 C 86.351562 196.328125 82.097656 197.253906 80.496094 197.597656 Z M 112.847656 203.84375 L 113.1875 203.90625 L 113.25 203.890625 C 116.851562 204.550781 120.53125 204.902344 124.253906 204.902344 C 129 204.902344 133.8125 204.34375 138.609375 203.191406 L 129.140625 217.226562 L 108.972656 220.191406 L 108.484375 202.847656 C 109.925781 203.230469 111.378906 203.566406 112.847656 203.84375 Z M 129.660156 218.054688 Z M 108.109375 221.222656 Z M 146.015625 195.402344 C 146.097656 195.363281 146.175781 195.328125 146.253906 195.289062 C 147.363281 195.667969 148.453125 195.976562 149.628906 196.140625 C 147.785156 197.023438 145.878906 197.816406 143.917969 198.515625 Z M 146.015625 195.402344 " fill-opacity="1" fill-rule="nonzero"/></g><g fill="#44425a" fill-opacity="1"><g transform="translate(220.468795, 141.745585)"><g><path d="M 35.15625 0 L 25.796875 0 L 10.703125 -26.25 L 10.484375 -26.25 C 10.546875 -25.15625 10.601562 -24.054688 10.65625 -22.953125 C 10.707031 -21.847656 10.753906 -20.742188 10.796875 -19.640625 C 10.847656 -18.535156 10.894531 -17.429688 10.9375 -16.328125 L 10.9375 0 L 4.375 0 L 4.375 -34.703125 L 13.640625 -34.703125 L 28.71875 -8.703125 L 28.890625 -8.703125 C 28.859375 -9.785156 28.816406 -10.851562 28.765625 -11.90625 C 28.722656 -12.96875 28.679688 -14.03125 28.640625 -15.09375 C 28.597656 -16.15625 28.5625 -17.21875 28.53125 -18.28125 L 28.53125 -34.703125 L 35.15625 -34.703125 Z M 35.15625 0 "/></g></g></g><g fill="#44425a" fill-opacity="1"><g transform="translate(259.974578, 141.745585)"><g><path d="M 14.734375 -27.03125 C 17.191406 -27.03125 19.304688 -26.554688 21.078125 -25.609375 C 22.847656 -24.671875 24.210938 -23.304688 25.171875 -21.515625 C 26.140625 -19.734375 26.625 -17.554688 26.625 -14.984375 L 26.625 -11.46875 L 9.515625 -11.46875 C 9.597656 -9.425781 10.210938 -7.820312 11.359375 -6.65625 C 12.503906 -5.488281 14.097656 -4.90625 16.140625 -4.90625 C 17.828125 -4.90625 19.375 -5.078125 20.78125 -5.421875 C 22.195312 -5.773438 23.648438 -6.300781 25.140625 -7 L 25.140625 -1.40625 C 23.828125 -0.75 22.453125 -0.273438 21.015625 0.015625 C 19.585938 0.316406 17.851562 0.46875 15.8125 0.46875 C 13.144531 0.46875 10.785156 -0.0195312 8.734375 -1 C 6.691406 -1.976562 5.085938 -3.472656 3.921875 -5.484375 C 2.765625 -7.492188 2.1875 -10.023438 2.1875 -13.078125 C 2.1875 -16.179688 2.710938 -18.765625 3.765625 -20.828125 C 4.816406 -22.890625 6.28125 -24.4375 8.15625 -25.46875 C 10.039062 -26.507812 12.234375 -27.03125 14.734375 -27.03125 Z M 14.78125 -21.890625 C 13.375 -21.890625 12.207031 -21.4375 11.28125 -20.53125 C 10.351562 -19.625 9.820312 -18.207031 9.6875 -16.28125 L 19.84375 -16.28125 C 19.820312 -17.351562 19.625 -18.304688 19.25 -19.140625 C 18.882812 -19.984375 18.332031 -20.648438 17.59375 -21.140625 C 16.863281 -21.640625 15.925781 -21.890625 14.78125 -21.890625 Z M 14.78125 -21.890625 "/></g></g></g><g fill="#44425a" fill-opacity="1"><g transform="translate(288.684487, 141.745585)"><g><path d="M 9.234375 -13.546875 L 0.6875 -26.53125 L 8.90625 -26.53125 L 14.046875 -18.09375 L 19.25 -26.53125 L 27.46875 -26.53125 L 18.828125 -13.546875 L 27.859375 0 L 19.625 0 L 14.046875 -9.09375 L 8.453125 0 L 0.234375 0 Z M 9.234375 -13.546875 "/></g></g></g><g fill="#44425a" fill-opacity="1"><g transform="translate(316.777489, 141.745585)"><g><path d="M 14.984375 -5.296875 C 15.765625 -5.296875 16.53125 -5.375 17.28125 -5.53125 C 18.039062 -5.6875 18.789062 -5.882812 19.53125 -6.125 L 19.53125 -0.734375 C 18.757812 -0.390625 17.796875 -0.101562 16.640625 0.125 C 15.492188 0.351562 14.242188 0.46875 12.890625 0.46875 C 11.304688 0.46875 9.882812 0.210938 8.625 -0.296875 C 7.363281 -0.804688 6.375 -1.695312 5.65625 -2.96875 C 4.9375 -4.25 4.578125 -6.03125 4.578125 -8.3125 L 4.578125 -21.09375 L 1.109375 -21.09375 L 1.109375 -24.15625 L 5.109375 -26.578125 L 7.1875 -32.1875 L 11.8125 -32.1875 L 11.8125 -26.53125 L 19.25 -26.53125 L 19.25 -21.09375 L 11.8125 -21.09375 L 11.8125 -8.3125 C 11.8125 -7.289062 12.097656 -6.53125 12.671875 -6.03125 C 13.253906 -5.539062 14.023438 -5.296875 14.984375 -5.296875 Z M 14.984375 -5.296875 "/></g></g></g><g fill="#44425a" fill-opacity="1"><g transform="translate(337.870967, 141.745585)"><g/></g></g><g fill="#44425a" fill-opacity="1"><g transform="translate(350.493836, 141.745585)"><g><path d="M 11.609375 0 L 4.375 0 L 4.375 -34.703125 L 24.25 -34.703125 L 24.25 -28.671875 L 11.609375 -28.671875 L 11.609375 -19.71875 L 23.375 -19.71875 L 23.375 -13.71875 L 11.609375 -13.71875 Z M 11.609375 0 "/></g></g></g><g fill="#44425a" fill-opacity="1"><g transform="translate(377.163206, 141.745585)"><g><path d="M 28.15625 -26.53125 L 28.15625 0 L 22.59375 0 L 21.625 -3.390625 L 21.25 -3.390625 C 20.675781 -2.492188 19.960938 -1.757812 19.109375 -1.1875 C 18.253906 -0.613281 17.3125 -0.195312 16.28125 0.0625 C 15.25 0.332031 14.179688 0.46875 13.078125 0.46875 C 11.179688 0.46875 9.523438 0.132812 8.109375 -0.53125 C 6.703125 -1.207031 5.609375 -2.253906 4.828125 -3.671875 C 4.046875 -5.097656 3.65625 -6.953125 3.65625 -9.234375 L 3.65625 -26.53125 L 10.890625 -26.53125 L 10.890625 -11.03125 C 10.890625 -9.132812 11.226562 -7.703125 11.90625 -6.734375 C 12.59375 -5.773438 13.679688 -5.296875 15.171875 -5.296875 C 16.640625 -5.296875 17.789062 -5.628906 18.625 -6.296875 C 19.46875 -6.972656 20.054688 -7.960938 20.390625 -9.265625 C 20.734375 -10.578125 20.90625 -12.171875 20.90625 -14.046875 L 20.90625 -26.53125 Z M 28.15625 -26.53125 "/></g></g></g><g fill="#44425a" fill-opacity="1"><g transform="translate(409.100014, 141.745585)"><g><path d="M 14.984375 -5.296875 C 15.765625 -5.296875 16.53125 -5.375 17.28125 -5.53125 C 18.039062 -5.6875 18.789062 -5.882812 19.53125 -6.125 L 19.53125 -0.734375 C 18.757812 -0.390625 17.796875 -0.101562 16.640625 0.125 C 15.492188 0.351562 14.242188 0.46875 12.890625 0.46875 C 11.304688 0.46875 9.882812 0.210938 8.625 -0.296875 C 7.363281 -0.804688 6.375 -1.695312 5.65625 -2.96875 C 4.9375 -4.25 4.578125 -6.03125 4.578125 -8.3125 L 4.578125 -21.09375 L 1.109375 -21.09375 L 1.109375 -24.15625 L 5.109375 -26.578125 L 7.1875 -32.1875 L 11.8125 -32.1875 L 11.8125 -26.53125 L 19.25 -26.53125 L 19.25 -21.09375 L 11.8125 -21.09375 L 11.8125 -8.3125 C 11.8125 -7.289062 12.097656 -6.53125 12.671875 -6.03125 C 13.253906 -5.539062 14.023438 -5.296875 14.984375 -5.296875 Z M 14.984375 -5.296875 "/></g></g></g><g fill="#44425a" fill-opacity="1"><g transform="translate(430.193492, 141.745585)"><g><path d="M 28.15625 -26.53125 L 28.15625 0 L 22.59375 0 L 21.625 -3.390625 L 21.25 -3.390625 C 20.675781 -2.492188 19.960938 -1.757812 19.109375 -1.1875 C 18.253906 -0.613281 17.3125 -0.195312 16.28125 0.0625 C 15.25 0.332031 14.179688 0.46875 13.078125 0.46875 C 11.179688 0.46875 9.523438 0.132812 8.109375 -0.53125 C 6.703125 -1.207031 5.609375 -2.253906 4.828125 -3.671875 C 4.046875 -5.097656 3.65625 -6.953125 3.65625 -9.234375 L 3.65625 -26.53125 L 10.890625 -26.53125 L 10.890625 -11.03125 C 10.890625 -9.132812 11.226562 -7.703125 11.90625 -6.734375 C 12.59375 -5.773438 13.679688 -5.296875 15.171875 -5.296875 C 16.640625 -5.296875 17.789062 -5.628906 18.625 -6.296875 C 19.46875 -6.972656 20.054688 -7.960938 20.390625 -9.265625 C 20.734375 -10.578125 20.90625 -12.171875 20.90625 -14.046875 L 20.90625 -26.53125 Z M 28.15625 -26.53125 "/></g></g></g><g fill="#44425a" fill-opacity="1"><g transform="translate(462.1303, 141.745585)"><g><path d="M 18.609375 -27.03125 C 18.972656 -27.03125 19.394531 -27.007812 19.875 -26.96875 C 20.363281 -26.9375 20.753906 -26.890625 21.046875 -26.828125 L 20.5 -20.03125 C 20.269531 -20.113281 19.9375 -20.171875 19.5 -20.203125 C 19.0625 -20.242188 18.6875 -20.265625 18.375 -20.265625 C 17.4375 -20.265625 16.53125 -20.144531 15.65625 -19.90625 C 14.78125 -19.675781 13.992188 -19.296875 13.296875 -18.765625 C 12.597656 -18.234375 12.046875 -17.535156 11.640625 -16.671875 C 11.234375 -15.804688 11.03125 -14.75 11.03125 -13.5 L 11.03125 0 L 3.796875 0 L 3.796875 -26.53125 L 9.28125 -26.53125 L 10.34375 -22.078125 L 10.703125 -22.078125 C 11.222656 -22.972656 11.875 -23.796875 12.65625 -24.546875 C 13.445312 -25.304688 14.34375 -25.910156 15.34375 -26.359375 C 16.351562 -26.804688 17.441406 -27.03125 18.609375 -27.03125 Z M 18.609375 -27.03125 "/></g></g></g><g fill="#44425a" fill-opacity="1"><g transform="translate(484.196593, 141.745585)"><g><path d="M 14.734375 -27.03125 C 17.191406 -27.03125 19.304688 -26.554688 21.078125 -25.609375 C 22.847656 -24.671875 24.210938 -23.304688 25.171875 -21.515625 C 26.140625 -19.734375 26.625 -17.554688 26.625 -14.984375 L 26.625 -11.46875 L 9.515625 -11.46875 C 9.597656 -9.425781 10.210938 -7.820312 11.359375 -6.65625 C 12.503906 -5.488281 14.097656 -4.90625 16.140625 -4.90625 C 17.828125 -4.90625 19.375 -5.078125 20.78125 -5.421875 C 22.195312 -5.773438 23.648438 -6.300781 25.140625 -7 L 25.140625 -1.40625 C 23.828125 -0.75 22.453125 -0.273438 21.015625 0.015625 C 19.585938 0.316406 17.851562 0.46875 15.8125 0.46875 C 13.144531 0.46875 10.785156 -0.0195312 8.734375 -1 C 6.691406 -1.976562 5.085938 -3.472656 3.921875 -5.484375 C 2.765625 -7.492188 2.1875 -10.023438 2.1875 -13.078125 C 2.1875 -16.179688 2.710938 -18.765625 3.765625 -20.828125 C 4.816406 -22.890625 6.28125 -24.4375 8.15625 -25.46875 C 10.039062 -26.507812 12.234375 -27.03125 14.734375 -27.03125 Z M 14.78125 -21.890625 C 13.375 -21.890625 12.207031 -21.4375 11.28125 -20.53125 C 10.351562 -19.625 9.820312 -18.207031 9.6875 -16.28125 L 19.84375 -16.28125 C 19.820312 -17.351562 19.625 -18.304688 19.25 -19.140625 C 18.882812 -19.984375 18.332031 -20.648438 17.59375 -21.140625 C 16.863281 -21.640625 15.925781 -21.890625 14.78125 -21.890625 Z M 14.78125 -21.890625 "/></g></g></g><g fill="#44425a" fill-opacity="1"><g transform="translate(512.906502, 141.745585)"><g/></g></g><g fill="#44425a" fill-opacity="1"><g transform="translate(525.529371, 141.745585)"><g><path d="M 17.75 0 L 10.390625 0 L 10.390625 -28.578125 L 0.96875 -28.578125 L 0.96875 -34.703125 L 27.171875 -34.703125 L 27.171875 -28.578125 L 17.75 -28.578125 Z M 17.75 0 "/></g></g></g><g fill="#44425a" fill-opacity="1"><g transform="translate(553.669808, 141.745585)"><g><path d="M 14.734375 -27.03125 C 17.191406 -27.03125 19.304688 -26.554688 21.078125 -25.609375 C 22.847656 -24.671875 24.210938 -23.304688 25.171875 -21.515625 C 26.140625 -19.734375 26.625 -17.554688 26.625 -14.984375 L 26.625 -11.46875 L 9.515625 -11.46875 C 9.597656 -9.425781 10.210938 -7.820312 11.359375 -6.65625 C 12.503906 -5.488281 14.097656 -4.90625 16.140625 -4.90625 C 17.828125 -4.90625 19.375 -5.078125 20.78125 -5.421875 C 22.195312 -5.773438 23.648438 -6.300781 25.140625 -7 L 25.140625 -1.40625 C 23.828125 -0.75 22.453125 -0.273438 21.015625 0.015625 C 19.585938 0.316406 17.851562 0.46875 15.8125 0.46875 C 13.144531 0.46875 10.785156 -0.0195312 8.734375 -1 C 6.691406 -1.976562 5.085938 -3.472656 3.921875 -5.484375 C 2.765625 -7.492188 2.1875 -10.023438 2.1875 -13.078125 C 2.1875 -16.179688 2.710938 -18.765625 3.765625 -20.828125 C 4.816406 -22.890625 6.28125 -24.4375 8.15625 -25.46875 C 10.039062 -26.507812 12.234375 -27.03125 14.734375 -27.03125 Z M 14.78125 -21.890625 C 13.375 -21.890625 12.207031 -21.4375 11.28125 -20.53125 C 10.351562 -19.625 9.820312 -18.207031 9.6875 -16.28125 L 19.84375 -16.28125 C 19.820312 -17.351562 19.625 -18.304688 19.25 -19.140625 C 18.882812 -19.984375 18.332031 -20.648438 17.59375 -21.140625 C 16.863281 -21.640625 15.925781 -21.890625 14.78125 -21.890625 Z M 14.78125 -21.890625 "/></g></g></g><g fill="#44425a" fill-opacity="1"><g transform="translate(582.379717, 141.745585)"><g><path d="M 14.578125 0.46875 C 11.953125 0.46875 9.710938 -0.00390625 7.859375 -0.953125 C 6.003906 -1.910156 4.59375 -3.394531 3.625 -5.40625 C 2.664062 -7.414062 2.1875 -9.988281 2.1875 -13.125 C 2.1875 -16.363281 2.734375 -19.007812 3.828125 -21.0625 C 4.929688 -23.113281 6.457031 -24.617188 8.40625 -25.578125 C 10.363281 -26.546875 12.632812 -27.03125 15.21875 -27.03125 C 17.050781 -27.03125 18.632812 -26.851562 19.96875 -26.5 C 21.3125 -26.144531 22.476562 -25.722656 23.46875 -25.234375 L 21.34375 -19.625 C 20.195312 -20.082031 19.132812 -20.457031 18.15625 -20.75 C 17.175781 -21.050781 16.195312 -21.203125 15.21875 -21.203125 C 13.945312 -21.203125 12.890625 -20.90625 12.046875 -20.3125 C 11.210938 -19.71875 10.585938 -18.828125 10.171875 -17.640625 C 9.765625 -16.453125 9.5625 -14.960938 9.5625 -13.171875 C 9.5625 -11.410156 9.78125 -9.953125 10.21875 -8.796875 C 10.664062 -7.648438 11.304688 -6.796875 12.140625 -6.234375 C 12.984375 -5.671875 14.007812 -5.390625 15.21875 -5.390625 C 16.71875 -5.390625 18.050781 -5.585938 19.21875 -5.984375 C 20.394531 -6.390625 21.535156 -6.957031 22.640625 -7.6875 L 22.640625 -1.5 C 21.535156 -0.800781 20.375 -0.300781 19.15625 0 C 17.945312 0.3125 16.421875 0.46875 14.578125 0.46875 Z M 14.578125 0.46875 "/></g></g></g><g fill="#44425a" fill-opacity="1"><g transform="translate(607.364436, 141.745585)"><g><path d="M 11.03125 -36.9375 L 11.03125 -29.40625 C 11.03125 -28.09375 10.988281 -26.84375 10.90625 -25.65625 C 10.820312 -24.46875 10.753906 -23.628906 10.703125 -23.140625 L 11.078125 -23.140625 C 11.648438 -24.054688 12.328125 -24.800781 13.109375 -25.375 C 13.890625 -25.945312 14.753906 -26.363281 15.703125 -26.625 C 16.660156 -26.894531 17.6875 -27.03125 18.78125 -27.03125 C 20.6875 -27.03125 22.351562 -26.691406 23.78125 -26.015625 C 25.207031 -25.347656 26.316406 -24.296875 27.109375 -22.859375 C 27.898438 -21.429688 28.296875 -19.578125 28.296875 -17.296875 L 28.296875 0 L 21.046875 0 L 21.046875 -15.5 C 21.046875 -17.394531 20.695312 -18.828125 20 -19.796875 C 19.3125 -20.765625 18.238281 -21.25 16.78125 -21.25 C 15.320312 -21.25 14.171875 -20.910156 13.328125 -20.234375 C 12.492188 -19.554688 11.898438 -18.566406 11.546875 -17.265625 C 11.203125 -15.960938 11.03125 -14.367188 11.03125 -12.484375 L 11.03125 0 L 3.796875 0 L 3.796875 -36.9375 Z M 11.03125 -36.9375 "/></g></g></g><g fill="#44425a" fill-opacity="1"><g transform="translate(639.301244, 141.745585)"><g><path d="M 18.875 -27.03125 C 21.707031 -27.03125 23.984375 -26.257812 25.703125 -24.71875 C 27.429688 -23.175781 28.296875 -20.703125 28.296875 -17.296875 L 28.296875 0 L 21.046875 0 L 21.046875 -15.5 C 21.046875 -17.394531 20.703125 -18.828125 20.015625 -19.796875 C 19.328125 -20.765625 18.25 -21.25 16.78125 -21.25 C 14.5625 -21.25 13.046875 -20.492188 12.234375 -18.984375 C 11.429688 -17.484375 11.03125 -15.316406 11.03125 -12.484375 L 11.03125 0 L 3.796875 0 L 3.796875 -26.53125 L 9.328125 -26.53125 L 10.296875 -23.140625 L 10.703125 -23.140625 C 11.273438 -24.054688 11.984375 -24.800781 12.828125 -25.375 C 13.671875 -25.945312 14.609375 -26.363281 15.640625 -26.625 C 16.679688 -26.894531 17.757812 -27.03125 18.875 -27.03125 Z M 18.875 -27.03125 "/></g></g></g><g fill="#44425a" fill-opacity="1"><g transform="translate(671.238052, 141.745585)"><g><path d="M 27.90625 -13.3125 C 27.90625 -11.101562 27.609375 -9.140625 27.015625 -7.421875 C 26.421875 -5.710938 25.554688 -4.269531 24.421875 -3.09375 C 23.296875 -1.914062 21.9375 -1.023438 20.34375 -0.421875 C 18.757812 0.171875 16.972656 0.46875 14.984375 0.46875 C 13.109375 0.46875 11.390625 0.171875 9.828125 -0.421875 C 8.273438 -1.023438 6.925781 -1.914062 5.78125 -3.09375 C 4.632812 -4.269531 3.75 -5.710938 3.125 -7.421875 C 2.5 -9.140625 2.1875 -11.101562 2.1875 -13.3125 C 2.1875 -16.257812 2.707031 -18.753906 3.75 -20.796875 C 4.789062 -22.835938 6.273438 -24.382812 8.203125 -25.4375 C 10.140625 -26.5 12.445312 -27.03125 15.125 -27.03125 C 17.601562 -27.03125 19.800781 -26.5 21.71875 -25.4375 C 23.644531 -24.382812 25.15625 -22.835938 26.25 -20.796875 C 27.351562 -18.753906 27.90625 -16.257812 27.90625 -13.3125 Z M 9.5625 -13.3125 C 9.5625 -11.570312 9.75 -10.109375 10.125 -8.921875 C 10.507812 -7.734375 11.101562 -6.835938 11.90625 -6.234375 C 12.71875 -5.640625 13.773438 -5.34375 15.078125 -5.34375 C 16.359375 -5.34375 17.394531 -5.640625 18.1875 -6.234375 C 18.988281 -6.835938 19.570312 -7.734375 19.9375 -8.921875 C 20.3125 -10.109375 20.5 -11.570312 20.5 -13.3125 C 20.5 -15.070312 20.3125 -16.53125 19.9375 -17.6875 C 19.570312 -18.851562 18.984375 -19.726562 18.171875 -20.3125 C 17.367188 -20.90625 16.320312 -21.203125 15.03125 -21.203125 C 13.113281 -21.203125 11.722656 -20.539062 10.859375 -19.21875 C 9.992188 -17.90625 9.5625 -15.9375 9.5625 -13.3125 Z M 9.5625 -13.3125 "/></g></g></g><g fill="#44425a" fill-opacity="1"><g transform="translate(701.324138, 141.745585)"><g><path d="M 11.03125 0 L 3.796875 0 L 3.796875 -36.9375 L 11.03125 -36.9375 Z M 11.03125 0 "/></g></g></g><g fill="#44425a" fill-opacity="1"><g transform="translate(716.153656, 141.745585)"><g><path d="M 27.90625 -13.3125 C 27.90625 -11.101562 27.609375 -9.140625 27.015625 -7.421875 C 26.421875 -5.710938 25.554688 -4.269531 24.421875 -3.09375 C 23.296875 -1.914062 21.9375 -1.023438 20.34375 -0.421875 C 18.757812 0.171875 16.972656 0.46875 14.984375 0.46875 C 13.109375 0.46875 11.390625 0.171875 9.828125 -0.421875 C 8.273438 -1.023438 6.925781 -1.914062 5.78125 -3.09375 C 4.632812 -4.269531 3.75 -5.710938 3.125 -7.421875 C 2.5 -9.140625 2.1875 -11.101562 2.1875 -13.3125 C 2.1875 -16.257812 2.707031 -18.753906 3.75 -20.796875 C 4.789062 -22.835938 6.273438 -24.382812 8.203125 -25.4375 C 10.140625 -26.5 12.445312 -27.03125 15.125 -27.03125 C 17.601562 -27.03125 19.800781 -26.5 21.71875 -25.4375 C 23.644531 -24.382812 25.15625 -22.835938 26.25 -20.796875 C 27.351562 -18.753906 27.90625 -16.257812 27.90625 -13.3125 Z M 9.5625 -13.3125 C 9.5625 -11.570312 9.75 -10.109375 10.125 -8.921875 C 10.507812 -7.734375 11.101562 -6.835938 11.90625 -6.234375 C 12.71875 -5.640625 13.773438 -5.34375 15.078125 -5.34375 C 16.359375 -5.34375 17.394531 -5.640625 18.1875 -6.234375 C 18.988281 -6.835938 19.570312 -7.734375 19.9375 -8.921875 C 20.3125 -10.109375 20.5 -11.570312 20.5 -13.3125 C 20.5 -15.070312 20.3125 -16.53125 19.9375 -17.6875 C 19.570312 -18.851562 18.984375 -19.726562 18.171875 -20.3125 C 17.367188 -20.90625 16.320312 -21.203125 15.03125 -21.203125 C 13.113281 -21.203125 11.722656 -20.539062 10.859375 -19.21875 C 9.992188 -17.90625 9.5625 -15.9375 9.5625 -13.3125 Z M 9.5625 -13.3125 "/></g></g></g><g fill="#44425a" fill-opacity="1"><g transform="translate(746.239742, 141.745585)"><g><path d="M 11.5625 11.671875 C 7.851562 11.671875 5.019531 11.023438 3.0625 9.734375 C 1.113281 8.453125 0.140625 6.644531 0.140625 4.3125 C 0.140625 2.71875 0.640625 1.378906 1.640625 0.296875 C 2.640625 -0.773438 4.101562 -1.539062 6.03125 -2 C 5.28125 -2.3125 4.628906 -2.828125 4.078125 -3.546875 C 3.523438 -4.265625 3.25 -5.03125 3.25 -5.84375 C 3.25 -6.851562 3.539062 -7.691406 4.125 -8.359375 C 4.71875 -9.035156 5.566406 -9.695312 6.671875 -10.34375 C 5.273438 -10.945312 4.171875 -11.910156 3.359375 -13.234375 C 2.546875 -14.566406 2.140625 -16.132812 2.140625 -17.9375 C 2.140625 -19.875 2.5625 -21.515625 3.40625 -22.859375 C 4.25 -24.210938 5.484375 -25.242188 7.109375 -25.953125 C 8.734375 -26.671875 10.707031 -27.03125 13.03125 -27.03125 C 13.519531 -27.03125 14.085938 -27 14.734375 -26.9375 C 15.390625 -26.875 15.988281 -26.800781 16.53125 -26.71875 C 17.070312 -26.644531 17.441406 -26.582031 17.640625 -26.53125 L 26.890625 -26.53125 L 26.890625 -22.859375 L 22.734375 -21.78125 C 23.117188 -21.195312 23.40625 -20.570312 23.59375 -19.90625 C 23.78125 -19.25 23.875 -18.546875 23.875 -17.796875 C 23.875 -14.953125 22.878906 -12.734375 20.890625 -11.140625 C 18.910156 -9.554688 16.15625 -8.765625 12.625 -8.765625 C 11.789062 -8.804688 11 -8.867188 10.25 -8.953125 C 9.882812 -8.660156 9.609375 -8.359375 9.421875 -8.046875 C 9.234375 -7.734375 9.140625 -7.398438 9.140625 -7.046875 C 9.140625 -6.703125 9.285156 -6.414062 9.578125 -6.1875 C 9.867188 -5.957031 10.3125 -5.78125 10.90625 -5.65625 C 11.5 -5.539062 12.238281 -5.484375 13.125 -5.484375 L 17.640625 -5.484375 C 20.546875 -5.484375 22.757812 -4.859375 24.28125 -3.609375 C 25.8125 -2.359375 26.578125 -0.519531 26.578125 1.90625 C 26.578125 5 25.285156 7.398438 22.703125 9.109375 C 20.117188 10.816406 16.40625 11.671875 11.5625 11.671875 Z M 11.875 6.953125 C 13.59375 6.953125 15.070312 6.789062 16.3125 6.46875 C 17.5625 6.144531 18.515625 5.6875 19.171875 5.09375 C 19.835938 4.5 20.171875 3.789062 20.171875 2.96875 C 20.171875 2.300781 19.976562 1.773438 19.59375 1.390625 C 19.207031 1.003906 18.617188 0.726562 17.828125 0.5625 C 17.046875 0.40625 16.046875 0.328125 14.828125 0.328125 L 11.078125 0.328125 C 10.191406 0.328125 9.394531 0.46875 8.6875 0.75 C 7.988281 1.039062 7.429688 1.441406 7.015625 1.953125 C 6.609375 2.472656 6.40625 3.070312 6.40625 3.75 C 6.40625 4.75 6.882812 5.53125 7.84375 6.09375 C 8.800781 6.664062 10.144531 6.953125 11.875 6.953125 Z M 13.03125 -13.171875 C 14.394531 -13.171875 15.390625 -13.585938 16.015625 -14.421875 C 16.648438 -15.265625 16.96875 -16.40625 16.96875 -17.84375 C 16.96875 -19.445312 16.640625 -20.644531 15.984375 -21.4375 C 15.328125 -22.238281 14.34375 -22.640625 13.03125 -22.640625 C 11.695312 -22.640625 10.695312 -22.238281 10.03125 -21.4375 C 9.375 -20.644531 9.046875 -19.445312 9.046875 -17.84375 C 9.046875 -16.40625 9.375 -15.265625 10.03125 -14.421875 C 10.6875 -13.585938 11.6875 -13.171875 13.03125 -13.171875 Z M 13.03125 -13.171875 "/></g></g></g><g fill="#44425a" fill-opacity="1"><g transform="translate(773.692128, 141.745585)"><g><path d="M 0 -26.53125 L 7.921875 -26.53125 L 12.9375 -11.609375 C 13.09375 -11.128906 13.222656 -10.644531 13.328125 -10.15625 C 13.441406 -9.664062 13.539062 -9.160156 13.625 -8.640625 C 13.707031 -8.117188 13.769531 -7.570312 13.8125 -7 L 13.953125 -7 C 14.046875 -7.851562 14.175781 -8.648438 14.34375 -9.390625 C 14.507812 -10.140625 14.722656 -10.878906 14.984375 -11.609375 L 19.890625 -26.53125 L 27.65625 -26.53125 L 16.421875 3.390625 C 15.742188 5.222656 14.859375 6.753906 13.765625 7.984375 C 12.671875 9.210938 11.414062 10.132812 10 10.75 C 8.582031 11.363281 7.03125 11.671875 5.34375 11.671875 C 4.519531 11.671875 3.804688 11.628906 3.203125 11.546875 C 2.597656 11.460938 2.082031 11.375 1.65625 11.28125 L 1.65625 5.53125 C 1.988281 5.613281 2.40625 5.6875 2.90625 5.75 C 3.414062 5.8125 3.953125 5.84375 4.515625 5.84375 C 5.523438 5.84375 6.394531 5.628906 7.125 5.203125 C 7.851562 4.773438 8.460938 4.195312 8.953125 3.46875 C 9.441406 2.75 9.828125 1.960938 10.109375 1.109375 L 10.53125 -0.1875 Z M 0 -26.53125 "/></g></g></g><g fill="#ff6600" fill-opacity="1"><g transform="translate(235.859053, 175.548666)"><g><path d="M 9.703125 -8.015625 L 9.40625 -8.015625 C 9.269531 -9.148438 8.660156 -9.71875 7.578125 -9.71875 L 5.84375 -9.71875 L 5.84375 -1.421875 C 5.84375 -0.960938 5.972656 -0.65625 6.234375 -0.5 C 6.503906 -0.34375 6.878906 -0.265625 7.359375 -0.265625 L 7.359375 0 L 2.703125 0 L 2.703125 -0.265625 C 3.234375 -0.265625 3.617188 -0.351562 3.859375 -0.53125 C 4.097656 -0.71875 4.21875 -1.050781 4.21875 -1.53125 L 4.21875 -9.71875 L 2.375 -9.71875 C 1.894531 -9.71875 1.492188 -9.578125 1.171875 -9.296875 C 0.859375 -9.023438 0.6875 -8.597656 0.65625 -8.015625 L 0.375 -8.015625 L 0.453125 -10.375 L 9.625 -10.375 Z M 9.703125 -8.015625 "/></g></g></g><g fill="#ff6600" fill-opacity="1"><g transform="translate(254.203616, 175.548666)"><g><path d="M 5.1875 -10.109375 L 5.09375 -10.109375 C 4.59375 -10.109375 4.226562 -10.015625 4 -9.828125 C 3.769531 -9.648438 3.65625 -9.328125 3.65625 -8.859375 L 3.65625 -5.765625 L 8.765625 -5.765625 L 8.765625 -8.875 C 8.765625 -9.34375 8.644531 -9.664062 8.40625 -9.84375 C 8.175781 -10.019531 7.8125 -10.109375 7.3125 -10.109375 L 7.21875 -10.109375 L 7.21875 -10.375 L 11.90625 -10.375 L 11.90625 -10.109375 C 11.375 -10.109375 10.988281 -10.019531 10.75 -9.84375 C 10.507812 -9.675781 10.390625 -9.34375 10.390625 -8.84375 L 10.390625 -1.515625 C 10.390625 -1.015625 10.507812 -0.679688 10.75 -0.515625 C 10.988281 -0.347656 11.375 -0.265625 11.90625 -0.265625 L 11.90625 0 L 7.21875 0 L 7.21875 -0.265625 C 7.769531 -0.265625 8.164062 -0.347656 8.40625 -0.515625 C 8.644531 -0.679688 8.765625 -1.019531 8.765625 -1.53125 L 8.765625 -5.171875 L 3.65625 -5.171875 L 3.65625 -1.53125 C 3.65625 -1.019531 3.769531 -0.679688 4 -0.515625 C 4.238281 -0.347656 4.632812 -0.265625 5.1875 -0.265625 L 5.1875 0 L 0.53125 0 L 0.53125 -0.265625 C 1.0625 -0.273438 1.441406 -0.363281 1.671875 -0.53125 C 1.910156 -0.707031 2.03125 -1.039062 2.03125 -1.53125 L 2.03125 -8.875 C 2.03125 -9.332031 1.910156 -9.648438 1.671875 -9.828125 C 1.441406 -10.015625 1.085938 -10.109375 0.609375 -10.109375 L 0.53125 -10.109375 L 0.53125 -10.375 L 5.1875 -10.375 Z M 5.1875 -10.109375 "/></g></g></g><g fill="#ff6600" fill-opacity="1"><g transform="translate(274.903793, 175.548666)"><g><path d="M 8.90625 -8.078125 L 8.640625 -8.078125 C 8.535156 -8.648438 8.347656 -9.078125 8.078125 -9.359375 C 7.804688 -9.640625 7.429688 -9.78125 6.953125 -9.78125 L 3.671875 -9.78125 L 3.671875 -5.765625 L 6.359375 -5.765625 C 6.847656 -5.765625 7.191406 -5.882812 7.390625 -6.125 C 7.585938 -6.375 7.691406 -6.757812 7.703125 -7.28125 L 7.984375 -7.28125 L 7.984375 -3.625 L 7.703125 -3.625 C 7.703125 -4.144531 7.597656 -4.53125 7.390625 -4.78125 C 7.191406 -5.039062 6.835938 -5.171875 6.328125 -5.171875 L 3.671875 -5.171875 L 3.671875 -1.375 C 3.671875 -0.863281 3.875 -0.609375 4.28125 -0.609375 L 6.9375 -0.609375 C 7.488281 -0.609375 7.972656 -0.773438 8.390625 -1.109375 C 8.816406 -1.441406 9.160156 -1.929688 9.421875 -2.578125 L 9.75 -2.578125 L 8.90625 0 L 0.546875 0 L 0.546875 -0.265625 C 1.066406 -0.265625 1.445312 -0.351562 1.6875 -0.53125 C 1.925781 -0.707031 2.046875 -1.039062 2.046875 -1.53125 L 2.046875 -8.953125 C 2.046875 -9.359375 1.925781 -9.648438 1.6875 -9.828125 C 1.445312 -10.015625 1.066406 -10.109375 0.546875 -10.109375 L 0.546875 -10.375 L 8.78125 -10.375 Z M 8.90625 -8.078125 "/></g></g></g><g fill="#ff6600" fill-opacity="1"><g transform="translate(293.248355, 175.548666)"><g/></g></g><g fill="#ff6600" fill-opacity="1"><g transform="translate(305.296192, 175.548666)"><g><path d="M 9.5625 -8.140625 L 9.28125 -8.140625 C 9.207031 -8.722656 8.988281 -9.15625 8.625 -9.4375 C 8.269531 -9.71875 7.734375 -9.859375 7.015625 -9.859375 L 3.734375 -9.859375 L 3.734375 -5.765625 L 6.296875 -5.765625 C 6.835938 -5.765625 7.21875 -5.863281 7.4375 -6.0625 C 7.65625 -6.257812 7.765625 -6.570312 7.765625 -7 L 7.765625 -7.234375 L 8.03125 -7.234375 L 8.03125 -3.703125 L 7.765625 -3.703125 L 7.765625 -3.890625 C 7.765625 -4.328125 7.65625 -4.648438 7.4375 -4.859375 C 7.226562 -5.066406 6.898438 -5.171875 6.453125 -5.171875 L 3.734375 -5.171875 L 3.734375 -1.515625 C 3.734375 -1.023438 3.851562 -0.691406 4.09375 -0.515625 C 4.332031 -0.347656 4.710938 -0.265625 5.234375 -0.265625 L 5.234375 0 L 0.65625 0 L 0.65625 -0.265625 L 0.734375 -0.265625 C 1.191406 -0.265625 1.53125 -0.359375 1.75 -0.546875 C 1.976562 -0.734375 2.09375 -1.0625 2.09375 -1.53125 L 2.09375 -8.921875 C 2.09375 -9.347656 1.976562 -9.648438 1.75 -9.828125 C 1.519531 -10.015625 1.15625 -10.109375 0.65625 -10.109375 L 0.65625 -10.375 L 9.453125 -10.375 Z M 9.5625 -8.140625 "/></g></g></g><g fill="#ff6600" fill-opacity="1"><g transform="translate(323.640759, 175.548666)"><g><path d="M 5.125 -10.109375 C 4.78125 -10.097656 4.507812 -10.054688 4.3125 -9.984375 C 4.113281 -9.921875 3.957031 -9.800781 3.84375 -9.625 C 3.738281 -9.457031 3.6875 -9.203125 3.6875 -8.859375 L 3.6875 -3.125 C 3.6875 -2.351562 3.921875 -1.707031 4.390625 -1.1875 C 4.867188 -0.675781 5.582031 -0.421875 6.53125 -0.421875 C 7.644531 -0.421875 8.484375 -0.695312 9.046875 -1.25 C 9.609375 -1.800781 9.890625 -2.628906 9.890625 -3.734375 L 9.890625 -8.890625 C 9.890625 -9.335938 9.769531 -9.648438 9.53125 -9.828125 C 9.300781 -10.015625 8.953125 -10.109375 8.484375 -10.109375 L 8.34375 -10.109375 L 8.34375 -10.375 L 12.140625 -10.375 L 12.140625 -10.109375 C 11.765625 -10.109375 11.460938 -10.078125 11.234375 -10.015625 C 11.003906 -9.953125 10.832031 -9.832031 10.71875 -9.65625 C 10.601562 -9.476562 10.546875 -9.210938 10.546875 -8.859375 L 10.546875 -3.546875 C 10.546875 -2.867188 10.394531 -2.242188 10.09375 -1.671875 C 9.789062 -1.109375 9.328125 -0.648438 8.703125 -0.296875 C 8.085938 0.0546875 7.316406 0.234375 6.390625 0.234375 C 5.335938 0.234375 4.488281 0.0625 3.84375 -0.28125 C 3.195312 -0.632812 2.738281 -1.082031 2.46875 -1.625 C 2.195312 -2.164062 2.0625 -2.75 2.0625 -3.375 L 2.0625 -8.46875 C 2.0625 -8.914062 2.019531 -9.253906 1.9375 -9.484375 C 1.851562 -9.710938 1.707031 -9.875 1.5 -9.96875 C 1.289062 -10.0625 0.988281 -10.109375 0.59375 -10.109375 L 0.484375 -10.109375 L 0.484375 -10.375 L 5.125 -10.375 Z M 5.125 -10.109375 "/></g></g></g><g fill="#ff6600" fill-opacity="1"><g transform="translate(344.340941, 175.548666)"><g><path d="M 9.703125 -8.015625 L 9.40625 -8.015625 C 9.269531 -9.148438 8.660156 -9.71875 7.578125 -9.71875 L 5.84375 -9.71875 L 5.84375 -1.421875 C 5.84375 -0.960938 5.972656 -0.65625 6.234375 -0.5 C 6.503906 -0.34375 6.878906 -0.265625 7.359375 -0.265625 L 7.359375 0 L 2.703125 0 L 2.703125 -0.265625 C 3.234375 -0.265625 3.617188 -0.351562 3.859375 -0.53125 C 4.097656 -0.71875 4.21875 -1.050781 4.21875 -1.53125 L 4.21875 -9.71875 L 2.375 -9.71875 C 1.894531 -9.71875 1.492188 -9.578125 1.171875 -9.296875 C 0.859375 -9.023438 0.6875 -8.597656 0.65625 -8.015625 L 0.375 -8.015625 L 0.453125 -10.375 L 9.625 -10.375 Z M 9.703125 -8.015625 "/></g></g></g><g fill="#ff6600" fill-opacity="1"><g transform="translate(362.685508, 175.548666)"><g><path d="M 5.125 -10.109375 C 4.78125 -10.097656 4.507812 -10.054688 4.3125 -9.984375 C 4.113281 -9.921875 3.957031 -9.800781 3.84375 -9.625 C 3.738281 -9.457031 3.6875 -9.203125 3.6875 -8.859375 L 3.6875 -3.125 C 3.6875 -2.351562 3.921875 -1.707031 4.390625 -1.1875 C 4.867188 -0.675781 5.582031 -0.421875 6.53125 -0.421875 C 7.644531 -0.421875 8.484375 -0.695312 9.046875 -1.25 C 9.609375 -1.800781 9.890625 -2.628906 9.890625 -3.734375 L 9.890625 -8.890625 C 9.890625 -9.335938 9.769531 -9.648438 9.53125 -9.828125 C 9.300781 -10.015625 8.953125 -10.109375 8.484375 -10.109375 L 8.34375 -10.109375 L 8.34375 -10.375 L 12.140625 -10.375 L 12.140625 -10.109375 C 11.765625 -10.109375 11.460938 -10.078125 11.234375 -10.015625 C 11.003906 -9.953125 10.832031 -9.832031 10.71875 -9.65625 C 10.601562 -9.476562 10.546875 -9.210938 10.546875 -8.859375 L 10.546875 -3.546875 C 10.546875 -2.867188 10.394531 -2.242188 10.09375 -1.671875 C 9.789062 -1.109375 9.328125 -0.648438 8.703125 -0.296875 C 8.085938 0.0546875 7.316406 0.234375 6.390625 0.234375 C 5.335938 0.234375 4.488281 0.0625 3.84375 -0.28125 C 3.195312 -0.632812 2.738281 -1.082031 2.46875 -1.625 C 2.195312 -2.164062 2.0625 -2.75 2.0625 -3.375 L 2.0625 -8.46875 C 2.0625 -8.914062 2.019531 -9.253906 1.9375 -9.484375 C 1.851562 -9.710938 1.707031 -9.875 1.5 -9.96875 C 1.289062 -10.0625 0.988281 -10.109375 0.59375 -10.109375 L 0.484375 -10.109375 L 0.484375 -10.375 L 5.125 -10.375 Z M 5.125 -10.109375 "/></g></g></g><g fill="#ff6600" fill-opacity="1"><g transform="translate(383.38569, 175.548666)"><g><path d="M 8.9375 -7.671875 C 8.9375 -7.035156 8.71875 -6.488281 8.28125 -6.03125 C 7.851562 -5.570312 7.195312 -5.234375 6.3125 -5.015625 L 8.71875 -2.046875 C 9.007812 -1.679688 9.253906 -1.390625 9.453125 -1.171875 C 9.660156 -0.953125 9.910156 -0.753906 10.203125 -0.578125 C 10.503906 -0.398438 10.835938 -0.296875 11.203125 -0.265625 L 11.203125 0 L 8.484375 0 L 4.578125 -4.859375 L 3.578125 -4.859375 L 3.578125 -1.5 C 3.578125 -1.050781 3.691406 -0.734375 3.921875 -0.546875 C 4.148438 -0.359375 4.503906 -0.265625 4.984375 -0.265625 L 5.046875 -0.265625 L 5.046875 0 L 0.515625 0 L 0.515625 -0.265625 C 0.992188 -0.265625 1.351562 -0.347656 1.59375 -0.515625 C 1.832031 -0.691406 1.953125 -1.003906 1.953125 -1.453125 L 1.953125 -8.953125 C 1.953125 -9.359375 1.832031 -9.648438 1.59375 -9.828125 C 1.351562 -10.015625 0.992188 -10.109375 0.515625 -10.109375 L 0.515625 -10.375 L 5.359375 -10.375 C 6.347656 -10.375 7.191406 -10.148438 7.890625 -9.703125 C 8.585938 -9.265625 8.9375 -8.585938 8.9375 -7.671875 Z M 3.578125 -9.578125 L 3.578125 -5.375 L 3.953125 -5.375 C 4.972656 -5.375 5.742188 -5.570312 6.265625 -5.96875 C 6.796875 -6.375 7.0625 -6.925781 7.0625 -7.625 C 7.0625 -8.238281 6.859375 -8.757812 6.453125 -9.1875 C 6.054688 -9.625 5.5 -9.84375 4.78125 -9.84375 C 4.382812 -9.84375 3.984375 -9.753906 3.578125 -9.578125 Z M 3.578125 -9.578125 "/></g></g></g><g fill="#ff6600" fill-opacity="1"><g transform="translate(403.300666, 175.548666)"><g><path d="M 8.90625 -8.078125 L 8.640625 -8.078125 C 8.535156 -8.648438 8.347656 -9.078125 8.078125 -9.359375 C 7.804688 -9.640625 7.429688 -9.78125 6.953125 -9.78125 L 3.671875 -9.78125 L 3.671875 -5.765625 L 6.359375 -5.765625 C 6.847656 -5.765625 7.191406 -5.882812 7.390625 -6.125 C 7.585938 -6.375 7.691406 -6.757812 7.703125 -7.28125 L 7.984375 -7.28125 L 7.984375 -3.625 L 7.703125 -3.625 C 7.703125 -4.144531 7.597656 -4.53125 7.390625 -4.78125 C 7.191406 -5.039062 6.835938 -5.171875 6.328125 -5.171875 L 3.671875 -5.171875 L 3.671875 -1.375 C 3.671875 -0.863281 3.875 -0.609375 4.28125 -0.609375 L 6.9375 -0.609375 C 7.488281 -0.609375 7.972656 -0.773438 8.390625 -1.109375 C 8.816406 -1.441406 9.160156 -1.929688 9.421875 -2.578125 L 9.75 -2.578125 L 8.90625 0 L 0.546875 0 L 0.546875 -0.265625 C 1.066406 -0.265625 1.445312 -0.351562 1.6875 -0.53125 C 1.925781 -0.707031 2.046875 -1.039062 2.046875 -1.53125 L 2.046875 -8.953125 C 2.046875 -9.359375 1.925781 -9.648438 1.6875 -9.828125 C 1.445312 -10.015625 1.066406 -10.109375 0.546875 -10.109375 L 0.546875 -10.375 L 8.78125 -10.375 Z M 8.90625 -8.078125 "/></g></g></g><g fill="#ff6600" fill-opacity="1"><g transform="translate(421.645234, 175.548666)"><g/></g></g><g fill="#ff6600" fill-opacity="1"><g transform="translate(433.693075, 175.548666)"><g><path d="M 4.578125 -10.109375 C 4.160156 -10.109375 3.863281 -10.0625 3.6875 -9.96875 C 3.519531 -9.875 3.4375 -9.691406 3.4375 -9.421875 C 3.4375 -9.203125 3.539062 -8.847656 3.75 -8.359375 L 6.109375 -2.53125 L 8.453125 -8.734375 C 8.460938 -8.753906 8.488281 -8.828125 8.53125 -8.953125 C 8.582031 -9.085938 8.609375 -9.234375 8.609375 -9.390625 C 8.609375 -9.648438 8.503906 -9.832031 8.296875 -9.9375 C 8.085938 -10.039062 7.835938 -10.097656 7.546875 -10.109375 L 7.546875 -10.375 L 10.703125 -10.375 L 10.703125 -10.109375 C 10.328125 -10.085938 10 -9.90625 9.71875 -9.5625 C 9.4375 -9.21875 9.128906 -8.609375 8.796875 -7.734375 L 5.765625 0.234375 L 5.484375 0.234375 L 1.984375 -8.46875 C 1.804688 -8.894531 1.644531 -9.21875 1.5 -9.4375 C 1.351562 -9.664062 1.179688 -9.828125 0.984375 -9.921875 C 0.785156 -10.023438 0.519531 -10.085938 0.1875 -10.109375 L 0.1875 -10.375 L 4.578125 -10.375 Z M 4.578125 -10.109375 "/></g></g></g><g fill="#ff6600" fill-opacity="1"><g transform="translate(452.822847, 175.548666)"><g><path d="M 5.296875 -10.109375 C 4.878906 -10.109375 4.554688 -10.066406 4.328125 -9.984375 C 4.109375 -9.910156 3.953125 -9.773438 3.859375 -9.578125 C 3.773438 -9.390625 3.734375 -9.109375 3.734375 -8.734375 L 3.734375 -1.515625 C 3.734375 -1.171875 3.785156 -0.910156 3.890625 -0.734375 C 4.003906 -0.554688 4.171875 -0.4375 4.390625 -0.375 C 4.617188 -0.3125 4.921875 -0.273438 5.296875 -0.265625 L 5.296875 0 L 0.53125 0 L 0.53125 -0.265625 C 0.9375 -0.273438 1.242188 -0.3125 1.453125 -0.375 C 1.671875 -0.4375 1.832031 -0.554688 1.9375 -0.734375 C 2.039062 -0.910156 2.09375 -1.175781 2.09375 -1.53125 L 2.09375 -8.734375 C 2.09375 -9.109375 2.046875 -9.390625 1.953125 -9.578125 C 1.859375 -9.765625 1.703125 -9.894531 1.484375 -9.96875 C 1.265625 -10.050781 0.945312 -10.097656 0.53125 -10.109375 L 0.53125 -10.375 L 5.296875 -10.375 Z M 5.296875 -10.109375 "/></g></g></g><g fill="#ff6600" fill-opacity="1"><g transform="translate(466.909211, 175.548666)"><g><path d="M 3.8125 -10.609375 C 4.15625 -10.609375 4.453125 -10.570312 4.703125 -10.5 C 4.953125 -10.4375 5.207031 -10.351562 5.46875 -10.25 C 5.601562 -10.195312 5.734375 -10.148438 5.859375 -10.109375 C 5.984375 -10.066406 6.09375 -10.046875 6.1875 -10.046875 C 6.4375 -10.046875 6.628906 -10.234375 6.765625 -10.609375 L 7.0625 -10.609375 L 7.0625 -7.15625 L 6.765625 -7.15625 C 6.710938 -7.695312 6.550781 -8.1875 6.28125 -8.625 C 6.019531 -9.0625 5.691406 -9.40625 5.296875 -9.65625 C 4.898438 -9.90625 4.472656 -10.03125 4.015625 -10.03125 C 3.523438 -10.03125 3.101562 -9.878906 2.75 -9.578125 C 2.394531 -9.285156 2.21875 -8.925781 2.21875 -8.5 C 2.21875 -8.007812 2.460938 -7.582031 2.953125 -7.21875 C 3.285156 -6.96875 3.757812 -6.664062 4.375 -6.3125 C 4.925781 -5.976562 5.378906 -5.691406 5.734375 -5.453125 C 6.097656 -5.210938 6.4375 -4.953125 6.75 -4.671875 C 7.03125 -4.398438 7.253906 -4.085938 7.421875 -3.734375 C 7.585938 -3.378906 7.671875 -3.015625 7.671875 -2.640625 C 7.671875 -2.128906 7.53125 -1.648438 7.25 -1.203125 C 6.96875 -0.765625 6.582031 -0.414062 6.09375 -0.15625 C 5.601562 0.101562 5.066406 0.234375 4.484375 0.234375 C 4.109375 0.234375 3.773438 0.195312 3.484375 0.125 C 3.203125 0.0625 2.90625 -0.0234375 2.59375 -0.140625 C 2.25 -0.253906 1.992188 -0.3125 1.828125 -0.3125 C 1.554688 -0.3125 1.347656 -0.128906 1.203125 0.234375 L 0.9375 0.234375 L 0.9375 -3.265625 L 1.203125 -3.265625 C 1.378906 -2.367188 1.71875 -1.65625 2.21875 -1.125 C 2.726562 -0.601562 3.390625 -0.34375 4.203125 -0.34375 C 4.773438 -0.34375 5.25 -0.5 5.625 -0.8125 C 6 -1.125 6.1875 -1.519531 6.1875 -2 C 6.1875 -2.238281 6.140625 -2.457031 6.046875 -2.65625 C 5.953125 -2.863281 5.800781 -3.082031 5.59375 -3.3125 C 5.394531 -3.507812 5.117188 -3.726562 4.765625 -3.96875 C 4.421875 -4.207031 3.957031 -4.5 3.375 -4.84375 C 2.875 -5.144531 2.492188 -5.382812 2.234375 -5.5625 C 1.972656 -5.738281 1.773438 -5.894531 1.640625 -6.03125 C 1.128906 -6.550781 0.875 -7.179688 0.875 -7.921875 C 0.875 -8.421875 1 -8.875 1.25 -9.28125 C 1.507812 -9.6875 1.859375 -10.007812 2.296875 -10.25 C 2.742188 -10.488281 3.25 -10.609375 3.8125 -10.609375 Z M 3.8125 -10.609375 "/></g></g></g><g fill="#ff6600" fill-opacity="1"><g transform="translate(483.517278, 175.548666)"><g><path d="M 5.296875 -10.109375 C 4.878906 -10.109375 4.554688 -10.066406 4.328125 -9.984375 C 4.109375 -9.910156 3.953125 -9.773438 3.859375 -9.578125 C 3.773438 -9.390625 3.734375 -9.109375 3.734375 -8.734375 L 3.734375 -1.515625 C 3.734375 -1.171875 3.785156 -0.910156 3.890625 -0.734375 C 4.003906 -0.554688 4.171875 -0.4375 4.390625 -0.375 C 4.617188 -0.3125 4.921875 -0.273438 5.296875 -0.265625 L 5.296875 0 L 0.53125 0 L 0.53125 -0.265625 C 0.9375 -0.273438 1.242188 -0.3125 1.453125 -0.375 C 1.671875 -0.4375 1.832031 -0.554688 1.9375 -0.734375 C 2.039062 -0.910156 2.09375 -1.175781 2.09375 -1.53125 L 2.09375 -8.734375 C 2.09375 -9.109375 2.046875 -9.390625 1.953125 -9.578125 C 1.859375 -9.765625 1.703125 -9.894531 1.484375 -9.96875 C 1.265625 -10.050781 0.945312 -10.097656 0.53125 -10.109375 L 0.53125 -10.375 L 5.296875 -10.375 Z M 5.296875 -10.109375 "/></g></g></g><g fill="#ff6600" fill-opacity="1"><g transform="translate(497.603642, 175.548666)"><g><path d="M 5.8125 -10.609375 C 6.769531 -10.609375 7.648438 -10.363281 8.453125 -9.875 C 9.265625 -9.394531 9.90625 -8.738281 10.375 -7.90625 C 10.851562 -7.070312 11.09375 -6.164062 11.09375 -5.1875 C 11.09375 -4.207031 10.851562 -3.300781 10.375 -2.46875 C 9.90625 -1.632812 9.265625 -0.972656 8.453125 -0.484375 C 7.648438 -0.00390625 6.769531 0.234375 5.8125 0.234375 C 4.851562 0.234375 3.972656 -0.00390625 3.171875 -0.484375 C 2.367188 -0.972656 1.734375 -1.632812 1.265625 -2.46875 C 0.796875 -3.300781 0.5625 -4.207031 0.5625 -5.1875 C 0.5625 -6.164062 0.796875 -7.070312 1.265625 -7.90625 C 1.734375 -8.738281 2.367188 -9.394531 3.171875 -9.875 C 3.972656 -10.363281 4.851562 -10.609375 5.8125 -10.609375 Z M 2.453125 -5.1875 C 2.453125 -4.21875 2.585938 -3.367188 2.859375 -2.640625 C 3.140625 -1.910156 3.535156 -1.34375 4.046875 -0.9375 C 4.554688 -0.539062 5.144531 -0.34375 5.8125 -0.34375 C 6.488281 -0.34375 7.082031 -0.539062 7.59375 -0.9375 C 8.113281 -1.34375 8.507812 -1.910156 8.78125 -2.640625 C 9.0625 -3.367188 9.203125 -4.21875 9.203125 -5.1875 C 9.203125 -6.132812 9.066406 -6.972656 8.796875 -7.703125 C 8.523438 -8.441406 8.132812 -9.015625 7.625 -9.421875 C 7.113281 -9.828125 6.503906 -10.03125 5.796875 -10.03125 C 5.109375 -10.03125 4.507812 -9.820312 4 -9.40625 C 3.5 -9 3.113281 -8.425781 2.84375 -7.6875 C 2.582031 -6.957031 2.453125 -6.125 2.453125 -5.1875 Z M 2.453125 -5.1875 "/></g></g></g><g fill="#ff6600" fill-opacity="1"><g transform="translate(517.518618, 175.548666)"><g><path d="M 9.921875 -2.71875 L 9.921875 -8.9375 C 9.921875 -9.394531 9.835938 -9.703125 9.671875 -9.859375 C 9.515625 -10.015625 9.222656 -10.097656 8.796875 -10.109375 L 8.421875 -10.109375 L 8.421875 -10.375 L 12.234375 -10.375 L 12.234375 -10.109375 L 11.921875 -10.109375 C 11.515625 -10.109375 11.222656 -10.082031 11.046875 -10.03125 C 10.878906 -9.976562 10.765625 -9.859375 10.703125 -9.671875 C 10.640625 -9.484375 10.609375 -9.179688 10.609375 -8.765625 L 10.609375 0.125 L 10.390625 0.125 L 2.96875 -8.234375 L 2.96875 -1.75 C 2.96875 -1.1875 3.082031 -0.796875 3.3125 -0.578125 C 3.539062 -0.367188 3.929688 -0.265625 4.484375 -0.265625 L 4.484375 0 L 0.734375 0 L 0.734375 -0.265625 L 0.828125 -0.265625 C 1.316406 -0.265625 1.6875 -0.351562 1.9375 -0.53125 C 2.1875 -0.707031 2.3125 -1.035156 2.3125 -1.515625 L 2.3125 -8.90625 C 2.050781 -9.34375 1.753906 -9.648438 1.421875 -9.828125 C 1.085938 -10.015625 0.679688 -10.109375 0.203125 -10.109375 L 0.203125 -10.375 L 3.21875 -10.375 Z M 9.921875 -2.71875 "/></g></g></g><g fill="#ff6600" fill-opacity="1"><g transform="translate(538.2188, 175.548666)"><g/></g></g><g fill="#ff6600" fill-opacity="1"><g transform="translate(550.266641, 175.548666)"><g><path d="M 5.296875 -10.109375 C 4.878906 -10.109375 4.554688 -10.066406 4.328125 -9.984375 C 4.109375 -9.910156 3.953125 -9.773438 3.859375 -9.578125 C 3.773438 -9.390625 3.734375 -9.109375 3.734375 -8.734375 L 3.734375 -1.515625 C 3.734375 -1.171875 3.785156 -0.910156 3.890625 -0.734375 C 4.003906 -0.554688 4.171875 -0.4375 4.390625 -0.375 C 4.617188 -0.3125 4.921875 -0.273438 5.296875 -0.265625 L 5.296875 0 L 0.53125 0 L 0.53125 -0.265625 C 0.9375 -0.273438 1.242188 -0.3125 1.453125 -0.375 C 1.671875 -0.4375 1.832031 -0.554688 1.9375 -0.734375 C 2.039062 -0.910156 2.09375 -1.175781 2.09375 -1.53125 L 2.09375 -8.734375 C 2.09375 -9.109375 2.046875 -9.390625 1.953125 -9.578125 C 1.859375 -9.765625 1.703125 -9.894531 1.484375 -9.96875 C 1.265625 -10.050781 0.945312 -10.097656 0.53125 -10.109375 L 0.53125 -10.375 L 5.296875 -10.375 Z M 5.296875 -10.109375 "/></g></g></g><g fill="#ff6600" fill-opacity="1"><g transform="translate(564.352985, 175.548666)"><g><path d="M 3.8125 -10.609375 C 4.15625 -10.609375 4.453125 -10.570312 4.703125 -10.5 C 4.953125 -10.4375 5.207031 -10.351562 5.46875 -10.25 C 5.601562 -10.195312 5.734375 -10.148438 5.859375 -10.109375 C 5.984375 -10.066406 6.09375 -10.046875 6.1875 -10.046875 C 6.4375 -10.046875 6.628906 -10.234375 6.765625 -10.609375 L 7.0625 -10.609375 L 7.0625 -7.15625 L 6.765625 -7.15625 C 6.710938 -7.695312 6.550781 -8.1875 6.28125 -8.625 C 6.019531 -9.0625 5.691406 -9.40625 5.296875 -9.65625 C 4.898438 -9.90625 4.472656 -10.03125 4.015625 -10.03125 C 3.523438 -10.03125 3.101562 -9.878906 2.75 -9.578125 C 2.394531 -9.285156 2.21875 -8.925781 2.21875 -8.5 C 2.21875 -8.007812 2.460938 -7.582031 2.953125 -7.21875 C 3.285156 -6.96875 3.757812 -6.664062 4.375 -6.3125 C 4.925781 -5.976562 5.378906 -5.691406 5.734375 -5.453125 C 6.097656 -5.210938 6.4375 -4.953125 6.75 -4.671875 C 7.03125 -4.398438 7.253906 -4.085938 7.421875 -3.734375 C 7.585938 -3.378906 7.671875 -3.015625 7.671875 -2.640625 C 7.671875 -2.128906 7.53125 -1.648438 7.25 -1.203125 C 6.96875 -0.765625 6.582031 -0.414062 6.09375 -0.15625 C 5.601562 0.101562 5.066406 0.234375 4.484375 0.234375 C 4.109375 0.234375 3.773438 0.195312 3.484375 0.125 C 3.203125 0.0625 2.90625 -0.0234375 2.59375 -0.140625 C 2.25 -0.253906 1.992188 -0.3125 1.828125 -0.3125 C 1.554688 -0.3125 1.347656 -0.128906 1.203125 0.234375 L 0.9375 0.234375 L 0.9375 -3.265625 L 1.203125 -3.265625 C 1.378906 -2.367188 1.71875 -1.65625 2.21875 -1.125 C 2.726562 -0.601562 3.390625 -0.34375 4.203125 -0.34375 C 4.773438 -0.34375 5.25 -0.5 5.625 -0.8125 C 6 -1.125 6.1875 -1.519531 6.1875 -2 C 6.1875 -2.238281 6.140625 -2.457031 6.046875 -2.65625 C 5.953125 -2.863281 5.800781 -3.082031 5.59375 -3.3125 C 5.394531 -3.507812 5.117188 -3.726562 4.765625 -3.96875 C 4.421875 -4.207031 3.957031 -4.5 3.375 -4.84375 C 2.875 -5.144531 2.492188 -5.382812 2.234375 -5.5625 C 1.972656 -5.738281 1.773438 -5.894531 1.640625 -6.03125 C 1.128906 -6.550781 0.875 -7.179688 0.875 -7.921875 C 0.875 -8.421875 1 -8.875 1.25 -9.28125 C 1.507812 -9.6875 1.859375 -10.007812 2.296875 -10.25 C 2.742188 -10.488281 3.25 -10.609375 3.8125 -10.609375 Z M 3.8125 -10.609375 "/></g></g></g><g fill="#ff6600" fill-opacity="1"><g transform="translate(580.961034, 175.548666)"><g/></g></g><g fill="#ff6600" fill-opacity="1"><g transform="translate(593.008856, 175.548666)"><g><path d="M 5.8125 -10.609375 C 6.769531 -10.609375 7.648438 -10.363281 8.453125 -9.875 C 9.265625 -9.394531 9.90625 -8.738281 10.375 -7.90625 C 10.851562 -7.070312 11.09375 -6.164062 11.09375 -5.1875 C 11.09375 -4.207031 10.851562 -3.300781 10.375 -2.46875 C 9.90625 -1.632812 9.265625 -0.972656 8.453125 -0.484375 C 7.648438 -0.00390625 6.769531 0.234375 5.8125 0.234375 C 4.851562 0.234375 3.972656 -0.00390625 3.171875 -0.484375 C 2.367188 -0.972656 1.734375 -1.632812 1.265625 -2.46875 C 0.796875 -3.300781 0.5625 -4.207031 0.5625 -5.1875 C 0.5625 -6.164062 0.796875 -7.070312 1.265625 -7.90625 C 1.734375 -8.738281 2.367188 -9.394531 3.171875 -9.875 C 3.972656 -10.363281 4.851562 -10.609375 5.8125 -10.609375 Z M 2.453125 -5.1875 C 2.453125 -4.21875 2.585938 -3.367188 2.859375 -2.640625 C 3.140625 -1.910156 3.535156 -1.34375 4.046875 -0.9375 C 4.554688 -0.539062 5.144531 -0.34375 5.8125 -0.34375 C 6.488281 -0.34375 7.082031 -0.539062 7.59375 -0.9375 C 8.113281 -1.34375 8.507812 -1.910156 8.78125 -2.640625 C 9.0625 -3.367188 9.203125 -4.21875 9.203125 -5.1875 C 9.203125 -6.132812 9.066406 -6.972656 8.796875 -7.703125 C 8.523438 -8.441406 8.132812 -9.015625 7.625 -9.421875 C 7.113281 -9.828125 6.503906 -10.03125 5.796875 -10.03125 C 5.109375 -10.03125 4.507812 -9.820312 4 -9.40625 C 3.5 -9 3.113281 -8.425781 2.84375 -7.6875 C 2.582031 -6.957031 2.453125 -6.125 2.453125 -5.1875 Z M 2.453125 -5.1875 "/></g></g></g><g fill="#ff6600" fill-opacity="1"><g transform="translate(612.923833, 175.548666)"><g><path d="M 5.125 -10.109375 C 4.78125 -10.097656 4.507812 -10.054688 4.3125 -9.984375 C 4.113281 -9.921875 3.957031 -9.800781 3.84375 -9.625 C 3.738281 -9.457031 3.6875 -9.203125 3.6875 -8.859375 L 3.6875 -3.125 C 3.6875 -2.351562 3.921875 -1.707031 4.390625 -1.1875 C 4.867188 -0.675781 5.582031 -0.421875 6.53125 -0.421875 C 7.644531 -0.421875 8.484375 -0.695312 9.046875 -1.25 C 9.609375 -1.800781 9.890625 -2.628906 9.890625 -3.734375 L 9.890625 -8.890625 C 9.890625 -9.335938 9.769531 -9.648438 9.53125 -9.828125 C 9.300781 -10.015625 8.953125 -10.109375 8.484375 -10.109375 L 8.34375 -10.109375 L 8.34375 -10.375 L 12.140625 -10.375 L 12.140625 -10.109375 C 11.765625 -10.109375 11.460938 -10.078125 11.234375 -10.015625 C 11.003906 -9.953125 10.832031 -9.832031 10.71875 -9.65625 C 10.601562 -9.476562 10.546875 -9.210938 10.546875 -8.859375 L 10.546875 -3.546875 C 10.546875 -2.867188 10.394531 -2.242188 10.09375 -1.671875 C 9.789062 -1.109375 9.328125 -0.648438 8.703125 -0.296875 C 8.085938 0.0546875 7.316406 0.234375 6.390625 0.234375 C 5.335938 0.234375 4.488281 0.0625 3.84375 -0.28125 C 3.195312 -0.632812 2.738281 -1.082031 2.46875 -1.625 C 2.195312 -2.164062 2.0625 -2.75 2.0625 -3.375 L 2.0625 -8.46875 C 2.0625 -8.914062 2.019531 -9.253906 1.9375 -9.484375 C 1.851562 -9.710938 1.707031 -9.875 1.5 -9.96875 C 1.289062 -10.0625 0.988281 -10.109375 0.59375 -10.109375 L 0.484375 -10.109375 L 0.484375 -10.375 L 5.125 -10.375 Z M 5.125 -10.109375 "/></g></g></g><g fill="#ff6600" fill-opacity="1"><g transform="translate(633.623996, 175.548666)"><g><path d="M 8.9375 -7.671875 C 8.9375 -7.035156 8.71875 -6.488281 8.28125 -6.03125 C 7.851562 -5.570312 7.195312 -5.234375 6.3125 -5.015625 L 8.71875 -2.046875 C 9.007812 -1.679688 9.253906 -1.390625 9.453125 -1.171875 C 9.660156 -0.953125 9.910156 -0.753906 10.203125 -0.578125 C 10.503906 -0.398438 10.835938 -0.296875 11.203125 -0.265625 L 11.203125 0 L 8.484375 0 L 4.578125 -4.859375 L 3.578125 -4.859375 L 3.578125 -1.5 C 3.578125 -1.050781 3.691406 -0.734375 3.921875 -0.546875 C 4.148438 -0.359375 4.503906 -0.265625 4.984375 -0.265625 L 5.046875 -0.265625 L 5.046875 0 L 0.515625 0 L 0.515625 -0.265625 C 0.992188 -0.265625 1.351562 -0.347656 1.59375 -0.515625 C 1.832031 -0.691406 1.953125 -1.003906 1.953125 -1.453125 L 1.953125 -8.953125 C 1.953125 -9.359375 1.832031 -9.648438 1.59375 -9.828125 C 1.351562 -10.015625 0.992188 -10.109375 0.515625 -10.109375 L 0.515625 -10.375 L 5.359375 -10.375 C 6.347656 -10.375 7.191406 -10.148438 7.890625 -9.703125 C 8.585938 -9.265625 8.9375 -8.585938 8.9375 -7.671875 Z M 3.578125 -9.578125 L 3.578125 -5.375 L 3.953125 -5.375 C 4.972656 -5.375 5.742188 -5.570312 6.265625 -5.96875 C 6.796875 -6.375 7.0625 -6.925781 7.0625 -7.625 C 7.0625 -8.238281 6.859375 -8.757812 6.453125 -9.1875 C 6.054688 -9.625 5.5 -9.84375 4.78125 -9.84375 C 4.382812 -9.84375 3.984375 -9.753906 3.578125 -9.578125 Z M 3.578125 -9.578125 "/></g></g></g><g fill="#ff6600" fill-opacity="1"><g transform="translate(653.538972, 175.548666)"><g/></g></g><g fill="#ff6600" fill-opacity="1"><g transform="translate(665.586795, 175.548666)"><g><path d="M 7.515625 -2.453125 L 11.15625 -10.375 L 14.3125 -10.375 L 14.3125 -10.109375 L 14.203125 -10.109375 C 13.722656 -10.109375 13.363281 -10.019531 13.125 -9.84375 C 12.894531 -9.675781 12.78125 -9.351562 12.78125 -8.875 L 12.78125 -1.5 C 12.78125 -1.050781 12.890625 -0.734375 13.109375 -0.546875 C 13.335938 -0.359375 13.710938 -0.265625 14.234375 -0.265625 L 14.3125 -0.265625 L 14.3125 0 L 9.625 0 L 9.625 -0.265625 L 9.765625 -0.265625 C 10.234375 -0.265625 10.582031 -0.359375 10.8125 -0.546875 C 11.039062 -0.734375 11.15625 -1.0625 11.15625 -1.53125 L 11.15625 -8.703125 L 11.125 -8.703125 L 7.125 0 L 6.859375 0 L 2.875 -8.703125 L 2.84375 -8.703125 L 2.84375 -1.515625 C 2.84375 -1.023438 2.953125 -0.695312 3.171875 -0.53125 C 3.390625 -0.363281 3.765625 -0.273438 4.296875 -0.265625 L 4.296875 0 L 0.65625 0 L 0.65625 -0.265625 L 0.734375 -0.265625 C 1.222656 -0.265625 1.582031 -0.351562 1.8125 -0.53125 C 2.039062 -0.707031 2.15625 -1.039062 2.15625 -1.53125 L 2.15625 -8.609375 C 2.15625 -9.085938 2.035156 -9.441406 1.796875 -9.671875 C 1.554688 -9.910156 1.175781 -10.054688 0.65625 -10.109375 L 0.65625 -10.375 L 3.828125 -10.375 Z M 7.515625 -2.453125 "/></g></g></g><g fill="#ff6600" fill-opacity="1"><g transform="translate(688.808662, 175.548666)"><g><path d="M 5.296875 -10.109375 C 4.878906 -10.109375 4.554688 -10.066406 4.328125 -9.984375 C 4.109375 -9.910156 3.953125 -9.773438 3.859375 -9.578125 C 3.773438 -9.390625 3.734375 -9.109375 3.734375 -8.734375 L 3.734375 -1.515625 C 3.734375 -1.171875 3.785156 -0.910156 3.890625 -0.734375 C 4.003906 -0.554688 4.171875 -0.4375 4.390625 -0.375 C 4.617188 -0.3125 4.921875 -0.273438 5.296875 -0.265625 L 5.296875 0 L 0.53125 0 L 0.53125 -0.265625 C 0.9375 -0.273438 1.242188 -0.3125 1.453125 -0.375 C 1.671875 -0.4375 1.832031 -0.554688 1.9375 -0.734375 C 2.039062 -0.910156 2.09375 -1.175781 2.09375 -1.53125 L 2.09375 -8.734375 C 2.09375 -9.109375 2.046875 -9.390625 1.953125 -9.578125 C 1.859375 -9.765625 1.703125 -9.894531 1.484375 -9.96875 C 1.265625 -10.050781 0.945312 -10.097656 0.53125 -10.109375 L 0.53125 -10.375 L 5.296875 -10.375 Z M 5.296875 -10.109375 "/></g></g></g><g fill="#ff6600" fill-opacity="1"><g transform="translate(702.895006, 175.548666)"><g><path d="M 3.8125 -10.609375 C 4.15625 -10.609375 4.453125 -10.570312 4.703125 -10.5 C 4.953125 -10.4375 5.207031 -10.351562 5.46875 -10.25 C 5.601562 -10.195312 5.734375 -10.148438 5.859375 -10.109375 C 5.984375 -10.066406 6.09375 -10.046875 6.1875 -10.046875 C 6.4375 -10.046875 6.628906 -10.234375 6.765625 -10.609375 L 7.0625 -10.609375 L 7.0625 -7.15625 L 6.765625 -7.15625 C 6.710938 -7.695312 6.550781 -8.1875 6.28125 -8.625 C 6.019531 -9.0625 5.691406 -9.40625 5.296875 -9.65625 C 4.898438 -9.90625 4.472656 -10.03125 4.015625 -10.03125 C 3.523438 -10.03125 3.101562 -9.878906 2.75 -9.578125 C 2.394531 -9.285156 2.21875 -8.925781 2.21875 -8.5 C 2.21875 -8.007812 2.460938 -7.582031 2.953125 -7.21875 C 3.285156 -6.96875 3.757812 -6.664062 4.375 -6.3125 C 4.925781 -5.976562 5.378906 -5.691406 5.734375 -5.453125 C 6.097656 -5.210938 6.4375 -4.953125 6.75 -4.671875 C 7.03125 -4.398438 7.253906 -4.085938 7.421875 -3.734375 C 7.585938 -3.378906 7.671875 -3.015625 7.671875 -2.640625 C 7.671875 -2.128906 7.53125 -1.648438 7.25 -1.203125 C 6.96875 -0.765625 6.582031 -0.414062 6.09375 -0.15625 C 5.601562 0.101562 5.066406 0.234375 4.484375 0.234375 C 4.109375 0.234375 3.773438 0.195312 3.484375 0.125 C 3.203125 0.0625 2.90625 -0.0234375 2.59375 -0.140625 C 2.25 -0.253906 1.992188 -0.3125 1.828125 -0.3125 C 1.554688 -0.3125 1.347656 -0.128906 1.203125 0.234375 L 0.9375 0.234375 L 0.9375 -3.265625 L 1.203125 -3.265625 C 1.378906 -2.367188 1.71875 -1.65625 2.21875 -1.125 C 2.726562 -0.601562 3.390625 -0.34375 4.203125 -0.34375 C 4.773438 -0.34375 5.25 -0.5 5.625 -0.8125 C 6 -1.125 6.1875 -1.519531 6.1875 -2 C 6.1875 -2.238281 6.140625 -2.457031 6.046875 -2.65625 C 5.953125 -2.863281 5.800781 -3.082031 5.59375 -3.3125 C 5.394531 -3.507812 5.117188 -3.726562 4.765625 -3.96875 C 4.421875 -4.207031 3.957031 -4.5 3.375 -4.84375 C 2.875 -5.144531 2.492188 -5.382812 2.234375 -5.5625 C 1.972656 -5.738281 1.773438 -5.894531 1.640625 -6.03125 C 1.128906 -6.550781 0.875 -7.179688 0.875 -7.921875 C 0.875 -8.421875 1 -8.875 1.25 -9.28125 C 1.507812 -9.6875 1.859375 -10.007812 2.296875 -10.25 C 2.742188 -10.488281 3.25 -10.609375 3.8125 -10.609375 Z M 3.8125 -10.609375 "/></g></g></g><g fill="#ff6600" fill-opacity="1"><g transform="translate(719.503055, 175.548666)"><g><path d="M 3.8125 -10.609375 C 4.15625 -10.609375 4.453125 -10.570312 4.703125 -10.5 C 4.953125 -10.4375 5.207031 -10.351562 5.46875 -10.25 C 5.601562 -10.195312 5.734375 -10.148438 5.859375 -10.109375 C 5.984375 -10.066406 6.09375 -10.046875 6.1875 -10.046875 C 6.4375 -10.046875 6.628906 -10.234375 6.765625 -10.609375 L 7.0625 -10.609375 L 7.0625 -7.15625 L 6.765625 -7.15625 C 6.710938 -7.695312 6.550781 -8.1875 6.28125 -8.625 C 6.019531 -9.0625 5.691406 -9.40625 5.296875 -9.65625 C 4.898438 -9.90625 4.472656 -10.03125 4.015625 -10.03125 C 3.523438 -10.03125 3.101562 -9.878906 2.75 -9.578125 C 2.394531 -9.285156 2.21875 -8.925781 2.21875 -8.5 C 2.21875 -8.007812 2.460938 -7.582031 2.953125 -7.21875 C 3.285156 -6.96875 3.757812 -6.664062 4.375 -6.3125 C 4.925781 -5.976562 5.378906 -5.691406 5.734375 -5.453125 C 6.097656 -5.210938 6.4375 -4.953125 6.75 -4.671875 C 7.03125 -4.398438 7.253906 -4.085938 7.421875 -3.734375 C 7.585938 -3.378906 7.671875 -3.015625 7.671875 -2.640625 C 7.671875 -2.128906 7.53125 -1.648438 7.25 -1.203125 C 6.96875 -0.765625 6.582031 -0.414062 6.09375 -0.15625 C 5.601562 0.101562 5.066406 0.234375 4.484375 0.234375 C 4.109375 0.234375 3.773438 0.195312 3.484375 0.125 C 3.203125 0.0625 2.90625 -0.0234375 2.59375 -0.140625 C 2.25 -0.253906 1.992188 -0.3125 1.828125 -0.3125 C 1.554688 -0.3125 1.347656 -0.128906 1.203125 0.234375 L 0.9375 0.234375 L 0.9375 -3.265625 L 1.203125 -3.265625 C 1.378906 -2.367188 1.71875 -1.65625 2.21875 -1.125 C 2.726562 -0.601562 3.390625 -0.34375 4.203125 -0.34375 C 4.773438 -0.34375 5.25 -0.5 5.625 -0.8125 C 6 -1.125 6.1875 -1.519531 6.1875 -2 C 6.1875 -2.238281 6.140625 -2.457031 6.046875 -2.65625 C 5.953125 -2.863281 5.800781 -3.082031 5.59375 -3.3125 C 5.394531 -3.507812 5.117188 -3.726562 4.765625 -3.96875 C 4.421875 -4.207031 3.957031 -4.5 3.375 -4.84375 C 2.875 -5.144531 2.492188 -5.382812 2.234375 -5.5625 C 1.972656 -5.738281 1.773438 -5.894531 1.640625 -6.03125 C 1.128906 -6.550781 0.875 -7.179688 0.875 -7.921875 C 0.875 -8.421875 1 -8.875 1.25 -9.28125 C 1.507812 -9.6875 1.859375 -10.007812 2.296875 -10.25 C 2.742188 -10.488281 3.25 -10.609375 3.8125 -10.609375 Z M 3.8125 -10.609375 "/></g></g></g><g fill="#ff6600" fill-opacity="1"><g transform="translate(736.111103, 175.548666)"><g><path d="M 5.296875 -10.109375 C 4.878906 -10.109375 4.554688 -10.066406 4.328125 -9.984375 C 4.109375 -9.910156 3.953125 -9.773438 3.859375 -9.578125 C 3.773438 -9.390625 3.734375 -9.109375 3.734375 -8.734375 L 3.734375 -1.515625 C 3.734375 -1.171875 3.785156 -0.910156 3.890625 -0.734375 C 4.003906 -0.554688 4.171875 -0.4375 4.390625 -0.375 C 4.617188 -0.3125 4.921875 -0.273438 5.296875 -0.265625 L 5.296875 0 L 0.53125 0 L 0.53125 -0.265625 C 0.9375 -0.273438 1.242188 -0.3125 1.453125 -0.375 C 1.671875 -0.4375 1.832031 -0.554688 1.9375 -0.734375 C 2.039062 -0.910156 2.09375 -1.175781 2.09375 -1.53125 L 2.09375 -8.734375 C 2.09375 -9.109375 2.046875 -9.390625 1.953125 -9.578125 C 1.859375 -9.765625 1.703125 -9.894531 1.484375 -9.96875 C 1.265625 -10.050781 0.945312 -10.097656 0.53125 -10.109375 L 0.53125 -10.375 L 5.296875 -10.375 Z M 5.296875 -10.109375 "/></g></g></g><g fill="#ff6600" fill-opacity="1"><g transform="translate(750.197447, 175.548666)"><g><path d="M 5.8125 -10.609375 C 6.769531 -10.609375 7.648438 -10.363281 8.453125 -9.875 C 9.265625 -9.394531 9.90625 -8.738281 10.375 -7.90625 C 10.851562 -7.070312 11.09375 -6.164062 11.09375 -5.1875 C 11.09375 -4.207031 10.851562 -3.300781 10.375 -2.46875 C 9.90625 -1.632812 9.265625 -0.972656 8.453125 -0.484375 C 7.648438 -0.00390625 6.769531 0.234375 5.8125 0.234375 C 4.851562 0.234375 3.972656 -0.00390625 3.171875 -0.484375 C 2.367188 -0.972656 1.734375 -1.632812 1.265625 -2.46875 C 0.796875 -3.300781 0.5625 -4.207031 0.5625 -5.1875 C 0.5625 -6.164062 0.796875 -7.070312 1.265625 -7.90625 C 1.734375 -8.738281 2.367188 -9.394531 3.171875 -9.875 C 3.972656 -10.363281 4.851562 -10.609375 5.8125 -10.609375 Z M 2.453125 -5.1875 C 2.453125 -4.21875 2.585938 -3.367188 2.859375 -2.640625 C 3.140625 -1.910156 3.535156 -1.34375 4.046875 -0.9375 C 4.554688 -0.539062 5.144531 -0.34375 5.8125 -0.34375 C 6.488281 -0.34375 7.082031 -0.539062 7.59375 -0.9375 C 8.113281 -1.34375 8.507812 -1.910156 8.78125 -2.640625 C 9.0625 -3.367188 9.203125 -4.21875 9.203125 -5.1875 C 9.203125 -6.132812 9.066406 -6.972656 8.796875 -7.703125 C 8.523438 -8.441406 8.132812 -9.015625 7.625 -9.421875 C 7.113281 -9.828125 6.503906 -10.03125 5.796875 -10.03125 C 5.109375 -10.03125 4.507812 -9.820312 4 -9.40625 C 3.5 -9 3.113281 -8.425781 2.84375 -7.6875 C 2.582031 -6.957031 2.453125 -6.125 2.453125 -5.1875 Z M 2.453125 -5.1875 "/></g></g></g><g fill="#ff6600" fill-opacity="1"><g transform="translate(770.112424, 175.548666)"><g><path d="M 9.921875 -2.71875 L 9.921875 -8.9375 C 9.921875 -9.394531 9.835938 -9.703125 9.671875 -9.859375 C 9.515625 -10.015625 9.222656 -10.097656 8.796875 -10.109375 L 8.421875 -10.109375 L 8.421875 -10.375 L 12.234375 -10.375 L 12.234375 -10.109375 L 11.921875 -10.109375 C 11.515625 -10.109375 11.222656 -10.082031 11.046875 -10.03125 C 10.878906 -9.976562 10.765625 -9.859375 10.703125 -9.671875 C 10.640625 -9.484375 10.609375 -9.179688 10.609375 -8.765625 L 10.609375 0.125 L 10.390625 0.125 L 2.96875 -8.234375 L 2.96875 -1.75 C 2.96875 -1.1875 3.082031 -0.796875 3.3125 -0.578125 C 3.539062 -0.367188 3.929688 -0.265625 4.484375 -0.265625 L 4.484375 0 L 0.734375 0 L 0.734375 -0.265625 L 0.828125 -0.265625 C 1.316406 -0.265625 1.6875 -0.351562 1.9375 -0.53125 C 2.1875 -0.707031 2.3125 -1.035156 2.3125 -1.515625 L 2.3125 -8.90625 C 2.050781 -9.34375 1.753906 -9.648438 1.421875 -9.828125 C 1.085938 -10.015625 0.679688 -10.109375 0.203125 -10.109375 L 0.203125 -10.375 L 3.21875 -10.375 Z M 9.921875 -2.71875 "/></g></g></g></svg>