<svg xmlns="http://www.w3.org/2000/svg" xmlns:xlink="http://www.w3.org/1999/xlink" width="500" zoomAndPan="magnify" viewBox="0 0 375 374.999991" height="500" preserveAspectRatio="xMidYMid meet" version="1.0"><defs><clipPath id="89d26630a9"><path d="M 122 305 L 145 305 L 145 324.371094 L 122 324.371094 Z M 122 305 " clip-rule="nonzero"/></clipPath><clipPath id="2ba7456e5c"><path d="M 40.460938 220 L 60 220 L 60 243 L 40.460938 243 Z M 40.460938 220 " clip-rule="nonzero"/></clipPath><clipPath id="f9f57be8a2"><path d="M 222 50.621094 L 243 50.621094 L 243 69 L 222 69 Z M 222 50.621094 " clip-rule="nonzero"/></clipPath><clipPath id="101aff9d2b"><path d="M 322 227 L 334.460938 227 L 334.460938 242 L 322 242 Z M 322 227 " clip-rule="nonzero"/></clipPath></defs><path fill="#bdbcbc" d="M 133.5 268.476562 C 113.269531 268.476562 96.875 252.078125 96.875 231.84375 C 96.875 211.613281 113.269531 195.214844 133.5 195.214844 C 153.722656 195.214844 170.121094 211.613281 170.121094 231.84375 C 170.121094 252.078125 153.722656 268.476562 133.5 268.476562 Z M 133.5 156.980469 C 92.164062 156.980469 58.65625 190.5 58.65625 231.84375 C 58.65625 273.191406 92.164062 306.710938 133.5 306.710938 C 174.835938 306.710938 208.347656 273.191406 208.347656 231.84375 C 208.347656 190.5 174.835938 156.980469 133.5 156.980469 " fill-opacity="1" fill-rule="nonzero"/><path fill="#a7a5a6" d="M 133.5 256.96875 C 119.628906 256.96875 108.378906 245.722656 108.378906 231.84375 C 108.378906 217.96875 119.628906 206.722656 133.5 206.722656 C 147.371094 206.722656 158.621094 217.96875 158.621094 231.84375 C 158.621094 245.722656 147.371094 256.96875 133.5 256.96875 Z M 133.5 180.496094 C 105.148438 180.496094 82.164062 203.484375 82.164062 231.84375 C 82.164062 260.207031 105.148438 283.195312 133.5 283.195312 C 161.851562 283.195312 184.835938 260.207031 184.835938 231.84375 C 184.835938 203.484375 161.851562 180.496094 133.5 180.496094 " fill-opacity="1" fill-rule="nonzero"/><path fill="#bdbcbc" d="M 144.695312 158.078125 L 122.308594 158.078125 L 122.308594 138.882812 L 144.695312 138.882812 L 144.695312 158.078125 " fill-opacity="1" fill-rule="nonzero"/><g clip-path="url(#89d26630a9)"><path fill="#bdbcbc" d="M 144.695312 324.367188 L 122.308594 324.367188 L 122.308594 305.171875 L 144.695312 305.171875 L 144.695312 324.367188 " fill-opacity="1" fill-rule="nonzero"/></g><path fill="#bdbcbc" d="M 207.03125 242.820312 L 207.03125 220.425781 L 226.21875 220.425781 L 226.21875 242.820312 L 207.03125 242.820312 " fill-opacity="1" fill-rule="nonzero"/><g clip-path="url(#2ba7456e5c)"><path fill="#bdbcbc" d="M 40.785156 242.820312 L 40.785156 220.425781 L 59.976562 220.425781 L 59.976562 242.820312 L 40.785156 242.820312 " fill-opacity="1" fill-rule="nonzero"/></g><path fill="#bdbcbc" d="M 179.511719 173.175781 L 160.039062 162.125 L 169.503906 145.433594 L 188.980469 156.480469 L 179.511719 173.175781 " fill-opacity="1" fill-rule="nonzero"/><path fill="#bdbcbc" d="M 97.496094 317.816406 L 78.019531 306.769531 L 87.492188 290.070312 L 106.964844 301.121094 L 97.496094 317.816406 " fill-opacity="1" fill-rule="nonzero"/><path fill="#bdbcbc" d="M 202.0625 202.789062 L 190.371094 183.6875 L 206.742188 173.664062 L 218.429688 192.769531 L 202.0625 202.789062 " fill-opacity="1" fill-rule="nonzero"/><path fill="#bdbcbc" d="M 60.257812 289.582031 L 48.570312 270.476562 L 64.945312 260.460938 L 76.632812 279.5625 L 60.257812 289.582031 " fill-opacity="1" fill-rule="nonzero"/><path fill="#bdbcbc" d="M 105.65625 162.644531 L 86.394531 174.054688 L 76.613281 157.542969 L 95.875 146.125 L 105.65625 162.644531 " fill-opacity="1" fill-rule="nonzero"/><path fill="#bdbcbc" d="M 190.390625 305.707031 L 171.128906 317.125 L 161.34375 300.605469 L 180.605469 289.191406 L 190.390625 305.707031 " fill-opacity="1" fill-rule="nonzero"/><path fill="#bdbcbc" d="M 74.765625 185.992188 L 63.84375 205.546875 L 47.089844 196.191406 L 58.003906 176.636719 L 74.765625 185.992188 " fill-opacity="1" fill-rule="nonzero"/><path fill="#bdbcbc" d="M 219.910156 267.058594 L 208.996094 286.613281 L 192.242188 277.257812 L 203.152344 257.703125 L 219.910156 267.058594 " fill-opacity="1" fill-rule="nonzero"/><path fill="#f7911c" d="M 250.890625 148.050781 C 235.953125 151.128906 221.34375 141.515625 218.265625 126.566406 C 215.1875 111.628906 224.800781 97.015625 239.742188 93.933594 C 254.679688 90.855469 269.289062 100.476562 272.371094 115.414062 C 275.441406 130.359375 265.828125 144.972656 250.890625 148.050781 Z M 233.921875 65.699219 C 203.390625 71.988281 183.742188 101.847656 190.03125 132.386719 C 196.324219 162.929688 226.175781 182.585938 256.707031 176.292969 C 287.238281 169.996094 306.890625 140.136719 300.601562 109.597656 C 294.308594 79.058594 264.457031 59.402344 233.921875 65.699219 " fill-opacity="1" fill-rule="nonzero"/><path fill="#d07a17" d="M 249.136719 139.554688 C 238.894531 141.667969 228.875 135.066406 226.765625 124.816406 C 224.652344 114.570312 231.242188 104.546875 241.492188 102.4375 C 251.738281 100.328125 261.757812 106.921875 263.867188 117.167969 C 265.980469 127.417969 259.386719 137.441406 249.136719 139.554688 Z M 237.503906 83.066406 C 216.554688 87.386719 203.078125 107.859375 207.394531 128.8125 C 211.710938 149.757812 232.1875 163.238281 253.128906 158.921875 C 274.070312 154.605469 287.546875 134.121094 283.234375 113.179688 C 278.917969 92.234375 258.441406 78.75 237.503906 83.066406 " fill-opacity="1" fill-rule="nonzero"/><g clip-path="url(#f9f57be8a2)"><path fill="#f7911c" d="M 242.359375 64.804688 L 225.820312 68.214844 L 222.902344 54.039062 L 239.4375 50.628906 L 242.359375 64.804688 " fill-opacity="1" fill-rule="nonzero"/></g><path fill="#f7911c" d="M 267.664062 187.628906 L 251.128906 191.035156 L 248.207031 176.859375 L 264.742188 173.449219 L 267.664062 187.628906 " fill-opacity="1" fill-rule="nonzero"/><path fill="#f7911c" d="M 301.296875 117.90625 L 297.890625 101.363281 L 312.066406 98.441406 L 315.472656 114.984375 L 301.296875 117.90625 " fill-opacity="1" fill-rule="nonzero"/><path fill="#f7911c" d="M 178.5 143.21875 L 175.09375 126.675781 L 189.269531 123.753906 L 192.675781 140.296875 L 178.5 143.21875 " fill-opacity="1" fill-rule="nonzero"/><path fill="#f7911c" d="M 270.371094 70.65625 L 254.308594 65.457031 L 258.753906 51.683594 L 274.828125 56.878906 L 270.371094 70.65625 " fill-opacity="1" fill-rule="nonzero"/><path fill="#f7911c" d="M 231.804688 189.976562 L 215.734375 184.78125 L 220.1875 171.007812 L 236.257812 176.203125 L 231.804688 189.976562 " fill-opacity="1" fill-rule="nonzero"/><path fill="#f7911c" d="M 291.535156 89.09375 L 279.996094 76.765625 L 290.5625 66.871094 L 302.101562 79.199219 L 291.535156 89.09375 " fill-opacity="1" fill-rule="nonzero"/><path fill="#f7911c" d="M 200.003906 174.792969 L 188.464844 162.457031 L 199.03125 152.566406 L 210.570312 164.898438 L 200.003906 174.792969 " fill-opacity="1" fill-rule="nonzero"/><path fill="#f7911c" d="M 214.21875 74.117188 L 201.726562 85.480469 L 191.992188 74.769531 L 204.480469 63.40625 L 214.21875 74.117188 " fill-opacity="1" fill-rule="nonzero"/><path fill="#f7911c" d="M 298.574219 166.890625 L 286.082031 178.253906 L 276.34375 167.546875 L 288.839844 156.179688 L 298.574219 166.890625 " fill-opacity="1" fill-rule="nonzero"/><path fill="#f7911c" d="M 194.953125 96.066406 L 189.867188 112.175781 L 176.0625 107.816406 L 181.152344 91.703125 L 194.953125 96.066406 " fill-opacity="1" fill-rule="nonzero"/><path fill="#f7911c" d="M 314.503906 133.847656 L 309.414062 149.953125 L 295.613281 145.59375 L 300.703125 129.492188 L 314.503906 133.847656 " fill-opacity="1" fill-rule="nonzero"/><path fill="#42a3ab" d="M 282.574219 258.277344 C 271.113281 258.984375 261.242188 250.261719 260.53125 238.796875 C 259.824219 227.332031 268.539062 217.460938 280.003906 216.746094 C 291.46875 216.039062 301.335938 224.757812 302.046875 236.222656 C 302.757812 247.695312 294.039062 257.5625 282.574219 258.277344 Z M 278.660156 195.078125 C 255.230469 196.527344 237.414062 216.707031 238.867188 240.140625 C 240.316406 263.578125 260.492188 281.394531 283.921875 279.945312 C 307.351562 278.492188 325.171875 258.316406 323.714844 234.882812 C 322.265625 211.449219 302.09375 193.621094 278.660156 195.078125 " fill-opacity="1" fill-rule="nonzero"/><path fill="#3a8d95" d="M 282.171875 251.753906 C 274.3125 252.238281 267.539062 246.257812 267.050781 238.394531 C 266.570312 230.527344 272.542969 223.753906 280.40625 223.269531 C 288.273438 222.785156 295.039062 228.761719 295.527344 236.628906 C 296.015625 244.492188 290.035156 251.261719 282.171875 251.753906 Z M 279.488281 208.40625 C 263.414062 209.402344 251.195312 223.238281 252.191406 239.316406 C 253.183594 255.390625 267.023438 267.613281 283.089844 266.617188 C 299.164062 265.621094 311.386719 251.78125 310.390625 235.707031 C 309.394531 219.628906 295.558594 207.410156 279.488281 208.40625 " fill-opacity="1" fill-rule="nonzero"/><path fill="#42a3ab" d="M 285.046875 195.304688 L 272.351562 196.089844 L 271.679688 185.214844 L 284.371094 184.425781 L 285.046875 195.304688 " fill-opacity="1" fill-rule="nonzero"/><path fill="#42a3ab" d="M 290.886719 289.558594 L 278.195312 290.34375 L 277.519531 279.464844 L 290.210938 278.683594 L 290.886719 289.558594 " fill-opacity="1" fill-rule="nonzero"/><g clip-path="url(#101aff9d2b)"><path fill="#42a3ab" d="M 323.355469 241.152344 L 322.570312 228.453125 L 333.445312 227.777344 L 334.230469 240.476562 L 323.355469 241.152344 " fill-opacity="1" fill-rule="nonzero"/></g><path fill="#42a3ab" d="M 229.125 246.992188 L 228.339844 234.296875 L 239.210938 233.625 L 239.996094 246.3125 L 229.125 246.992188 " fill-opacity="1" fill-rule="nonzero"/><path fill="#42a3ab" d="M 305.308594 202.644531 L 293.882812 197.0625 L 298.664062 187.265625 L 310.089844 192.839844 L 305.308594 202.644531 " fill-opacity="1" fill-rule="nonzero"/><path fill="#42a3ab" d="M 263.898438 287.507812 L 252.472656 281.929688 L 257.253906 272.132812 L 268.683594 277.707031 L 263.898438 287.507812 " fill-opacity="1" fill-rule="nonzero"/><path fill="#42a3ab" d="M 319.128906 218.632812 L 311.832031 208.210938 L 320.761719 201.960938 L 328.054688 212.375 L 319.128906 218.632812 " fill-opacity="1" fill-rule="nonzero"/><path fill="#42a3ab" d="M 241.804688 272.8125 L 234.507812 262.394531 L 243.433594 256.140625 L 250.730469 266.554688 L 241.804688 272.8125 " fill-opacity="1" fill-rule="nonzero"/><path fill="#42a3ab" d="M 263.078125 199.265625 L 252.5625 206.410156 L 246.4375 197.390625 L 256.953125 190.246094 L 263.078125 199.265625 " fill-opacity="1" fill-rule="nonzero"/><path fill="#42a3ab" d="M 316.128906 277.375 L 305.609375 284.527344 L 299.488281 275.507812 L 310.003906 268.359375 L 316.128906 277.375 " fill-opacity="1" fill-rule="nonzero"/><path fill="#42a3ab" d="M 246.386719 213.585938 L 240.886719 225.050781 L 231.058594 220.339844 L 236.5625 208.871094 L 246.386719 213.585938 " fill-opacity="1" fill-rule="nonzero"/><path fill="#42a3ab" d="M 331.507812 254.4375 L 326.007812 265.902344 L 316.183594 261.183594 L 321.679688 249.722656 L 331.507812 254.4375 " fill-opacity="1" fill-rule="nonzero"/></svg>